<?xml version="1.0" encoding="UTF-8"?>
<svg id="a" enable-background="new 0 0 325.68 325.68" version="1.1" viewBox="0 0 325.68 325.68" xml:space="preserve" xmlns="http://www.w3.org/2000/svg">
<g id="b" transform="matrix(.4403 0 0 .32097 90.838 7.4309)">
	<g id="c">
		<path id="d" d="m298.18 59.218h-69.84v-31.086c0-10.752-8.748-19.5-19.5-19.5h-92c-10.752 0-19.5 8.748-19.5 19.5v31.086h-69.84c-15.164 0-27.5 12.337-27.5 27.5v202.83c0 15.163 12.336 27.5 27.5 27.5h270.68c15.164 0 27.5-12.337 27.5-27.5v-202.83c0-15.163-12.337-27.5-27.5-27.5zm-185.84-31.086c0-2.481 2.019-4.5 4.5-4.5h92c2.481 0 4.5 2.019 4.5 4.5v31.086h-9v-19.086c0-4.142-3.358-7.5-7.5-7.5h-68c-4.142 0-7.5 3.358-7.5 7.5v19.086h-9zm77 19.5v11.586h-53v-11.586zm121.34 241.92c0 6.892-5.607 12.5-12.5 12.5h-270.68c-6.893 0-12.5-5.608-12.5-12.5v-96.938c7.543 3.867 10.578 3.018 42.44 3.018v22c0 4.143 3.358 7.5 7.5 7.5h35.8c4.142 0 7.5-3.357 7.5-7.5v-22h109.2v22c0 4.143 3.358 7.5 7.5 7.5h35.8c4.142 0 7.5-3.357 7.5-7.5v-22c31.92 0 34.913 0.841 42.44-3.018zm-238.24-79.42v-44h20.8v44zm160 0v-44h20.8v44zm78.24-42c0 6.893-5.607 12.5-12.5 12.5h-29.94v-22c0-4.143-3.358-7.5-7.5-7.5h-35.8c-4.142 0-7.5 3.357-7.5 7.5v22h-109.2v-22c0-4.143-3.358-7.5-7.5-7.5h-35.8c-4.142 0-7.5 3.357-7.5 7.5v22h-29.94c-6.893 0-12.5-5.607-12.5-12.5v-81.41c0-6.893 5.607-12.5 12.5-12.5h270.68c6.893 0 12.5 5.607 12.5 12.5z"/>
	</g>
</g>
<g id="e" transform="matrix(.4403 0 0 .32097 90.408 113.1)">
	<g id="f">
		<path id="g" d="m298.18 59.218h-69.84v-31.086c0-10.752-8.748-19.5-19.5-19.5h-92c-10.752 0-19.5 8.748-19.5 19.5v31.086h-69.84c-15.164 0-27.5 12.337-27.5 27.5v202.83c0 15.163 12.336 27.5 27.5 27.5h270.68c15.164 0 27.5-12.337 27.5-27.5v-202.83c0-15.163-12.337-27.5-27.5-27.5zm-185.84-31.086c0-2.481 2.019-4.5 4.5-4.5h92c2.481 0 4.5 2.019 4.5 4.5v31.086h-9v-19.086c0-4.142-3.358-7.5-7.5-7.5h-68c-4.142 0-7.5 3.358-7.5 7.5v19.086h-9zm77 19.5v11.586h-53v-11.586zm121.34 241.92c0 6.892-5.607 12.5-12.5 12.5h-270.68c-6.893 0-12.5-5.608-12.5-12.5v-96.938c7.543 3.867 10.578 3.018 42.44 3.018v22c0 4.143 3.358 7.5 7.5 7.5h35.8c4.142 0 7.5-3.357 7.5-7.5v-22h109.2v22c0 4.143 3.358 7.5 7.5 7.5h35.8c4.142 0 7.5-3.357 7.5-7.5v-22c31.92 0 34.913 0.841 42.44-3.018zm-238.24-79.42v-44h20.8v44zm160 0v-44h20.8v44zm78.24-42c0 6.893-5.607 12.5-12.5 12.5h-29.94v-22c0-4.143-3.358-7.5-7.5-7.5h-35.8c-4.142 0-7.5 3.357-7.5 7.5v22h-109.2v-22c0-4.143-3.358-7.5-7.5-7.5h-35.8c-4.142 0-7.5 3.357-7.5 7.5v22h-29.94c-6.893 0-12.5-5.607-12.5-12.5v-81.41c0-6.893 5.607-12.5 12.5-12.5h270.68c6.893 0 12.5 5.607 12.5 12.5z"/>
	</g>
</g><g id="h" transform="matrix(.4403 0 0 .32097 90.408 217.1)">
	<g id="i">
		<path id="j" d="m298.18 59.218h-69.84v-31.086c0-10.752-8.748-19.5-19.5-19.5h-92c-10.752 0-19.5 8.748-19.5 19.5v31.086h-69.84c-15.164 0-27.5 12.337-27.5 27.5v202.83c0 15.163 12.336 27.5 27.5 27.5h270.68c15.164 0 27.5-12.337 27.5-27.5v-202.83c0-15.163-12.337-27.5-27.5-27.5zm-185.84-31.086c0-2.481 2.019-4.5 4.5-4.5h92c2.481 0 4.5 2.019 4.5 4.5v31.086h-9v-19.086c0-4.142-3.358-7.5-7.5-7.5h-68c-4.142 0-7.5 3.358-7.5 7.5v19.086h-9zm77 19.5v11.586h-53v-11.586zm121.34 241.92c0 6.892-5.607 12.5-12.5 12.5h-270.68c-6.893 0-12.5-5.608-12.5-12.5v-96.938c7.543 3.867 10.578 3.018 42.44 3.018v22c0 4.143 3.358 7.5 7.5 7.5h35.8c4.142 0 7.5-3.357 7.5-7.5v-22h109.2v22c0 4.143 3.358 7.5 7.5 7.5h35.8c4.142 0 7.5-3.357 7.5-7.5v-22c31.92 0 34.913 0.841 42.44-3.018zm-238.24-79.42v-44h20.8v44zm160 0v-44h20.8v44zm78.24-42c0 6.893-5.607 12.5-12.5 12.5h-29.94v-22c0-4.143-3.358-7.5-7.5-7.5h-35.8c-4.142 0-7.5 3.357-7.5 7.5v22h-109.2v-22c0-4.143-3.358-7.5-7.5-7.5h-35.8c-4.142 0-7.5 3.357-7.5 7.5v22h-29.94c-6.893 0-12.5-5.607-12.5-12.5v-81.41c0-6.893 5.607-12.5 12.5-12.5h270.68c6.893 0 12.5 5.607 12.5 12.5z"/>
	</g>
</g><g fill="#fff" stroke="#000" stroke-width="1.2968"><path id="k" d="m99.851 108.61c-4.1692-0.93535-7.0296-3.0111-8.2825-6.0107-0.55171-1.3208-0.62801-5.6064-0.6202-34.836 0.01005-37.639-0.19975-35.16 3.2239-38.091 3.3531-2.8701 3.4752-2.8866 22.591-3.0449l17.114-0.14177v-5.5872c0-5.1175 0.0767-5.7028 0.91201-6.9635 0.51205-0.7728 1.7999-1.8205 2.9368-2.3891l2.0248-1.0127 21.672-0.12868c24.76-0.14703 25.013-0.12408 27.778 2.5255l1.7926 1.7176v11.845l17.114 0.14224c12.088 0.10046 17.552 0.28809 18.604 0.63887 2.4052 0.80189 5.3091 2.9838 6.2926 4.7281l0.91358 1.6203 7e-3 34.193 7e-3 34.193-0.98707 1.6843c-1.0971 1.8721-3.1469 3.4522-5.8992 4.5476-1.721 0.68495-5.2634 0.7295-63.394 0.79728-47.573 0.0555-62.078-0.0419-63.799-0.42804zm124.18-4.3516c1.1291-0.28431 2.1825-0.90287 2.8124-1.6514l1.007-1.1968v-16.215c0-15.3-0.04-16.196-0.70888-15.881-0.38988 0.18357-4.6736 0.3981-9.5192 0.47674l-8.8104 0.14297v3.775c0 5.9066 0.44427 5.6601-10.474 5.8106-7.5105 0.10351-9.1224 0.02155-10.163-0.51674l-1.2372-0.63977v-8.4858h-48.609v3.988c0 5.7455 0.445 5.4999-10.25 5.656-4.7007 0.06858-8.9529 0.02273-9.4494-0.10188-1.8723-0.46991-2.1746-1.2334-2.1746-5.4919v-3.9935l-8.8104-0.14297c-4.8457-0.07864-9.1294-0.29317-9.5193-0.47674-0.66895-0.31496-0.70888 0.59028-0.70888 16.07 0 15.021 0.05975 16.477 0.70888 17.274 1.7026 2.0901-0.55937 2.0181 64.025 2.0372 43.124 0.0128 60.585-0.11049 61.881-0.43681zm-91.778-36.407v-7.2913h-9.7218v14.583h9.7218zm70.391-0.10127 0.11062-7.1901h-9.7405v14.608l9.5192-0.22825zm-86.102-6.4702c0.11033-3.9579 0.16023-4.1636 1.1281-4.6524 0.72116-0.36416 3.5332-0.51309 9.7684-0.51734 8.2495-0.0056 8.8175 0.04257 9.8231 0.83358 1.0182 0.80091 1.0673 1.0153 1.0673 4.6584v3.8188h48.581l0.11545-4.141c0.11033-3.9579 0.16022-4.1636 1.1281-4.6524 0.72116-0.36416 3.5332-0.51309 9.7684-0.51734 8.2495-0.0056 8.8175 0.04257 9.8231 0.83358 1.0182 0.80091 1.0673 1.0153 1.0673 4.6584v3.8188h7.7165c6.0538 0 7.9688-0.13043 8.887-0.6053 2.464-1.2742 2.4349-1.0778 2.4349-16.443 0-13.782-0.0157-14.053-0.87816-15.149-1.8542-2.3573 1.7092-2.2342-64.427-2.2246-58.854 0.0086-60.932 0.03436-62.564 0.77571-0.92889 0.42175-1.8859 1.1349-2.1266 1.5848-0.68543 1.2807-0.57433 29.215 0.11982 30.129 1.292 1.7012 2.5434 1.9276 10.669 1.9302l7.7835 0.0025zm27.863-38.127c0-5.291-1.3647-4.9016 17.657-5.0384 19.648-0.1413 18.395-0.4671 18.395 4.7835v3.6353h4.4558v-5.4543c0-4.9779-0.0684-5.4909-0.78352-5.8736-0.51128-0.27363-8.1015-0.41933-21.845-0.41933-18.607 0-21.136 0.07419-21.698 0.63655-0.51303 0.51303-0.63655 1.6527-0.63655 5.8736v5.237h4.4558zm29.976 1.355v-2.0254h-23.899v4.0507h23.899z"/><path id="l" d="m96.853 213.49c-1.3145-0.54042-2.9984-1.5722-3.7419-2.2929-2.7218-2.6381-2.6143-0.97665-2.4884-38.458l0.11375-33.854 1.0127-1.4957c1.1849-1.75 3.3017-3.317 5.7502-4.2566 1.5024-0.57652 4.1122-0.68543 18.858-0.78695l17.114-0.11783v-5.5946c0-5.1588 0.0722-5.7018 0.92709-6.971 0.5099-0.75701 1.7403-1.8321 2.7342-2.3891l1.8072-1.0127 22.231-0.11457c25.309-0.13043 25.354-0.12602 27.948 2.7455l1.4678 1.6247v11.705l34.634 0.24283 2.4292 1.1374c2.8649 1.3413 4.0554 2.3714 5.104 4.4163 0.73945 1.4419 0.77073 2.8767 0.77073 35.356 0 27.664-0.10094 34.094-0.55217 35.174-0.30369 0.72683-1.3882 2.0575-2.4101 2.957-3.6513 3.214 1.5619 2.988-68.681 2.9772l-62.639-0.01zm128.04-3.958c2.6344-1.4408 2.5563-0.87047 2.5563-18.672v-16.16l-0.91142 0.31684c-0.50128 0.17426-4.7849 0.39077-9.5192 0.48113l-8.6078 0.1643v3.6435c0 4.1707-0.29054 4.9501-2.0773 5.573-2.0166 0.703-16.641 0.59227-18.392-0.13926l-1.4048-0.58695v-8.5479h-48.609v3.8033c0 5.8901 0.3415 5.6854-9.7588 5.8485-4.5163 0.0729-8.8105 0.0202-9.5427-0.11718-2.2894-0.4295-2.5725-1.033-2.5725-5.4845v-3.9935l-8.8104-0.17291c-4.8457-0.0951-9.1749-0.24456-9.6205-0.33213-0.79702-0.15663-0.81187 0.0859-0.91639 14.969-0.06776 9.6488 0.04805 15.702 0.31971 16.71 0.4779 1.7748 1.7175 2.7815 3.9734 3.2267 0.81629 0.16111 28.736 0.26658 62.043 0.23437 56.771-0.0549 60.639-0.10276 61.851-0.76513zm-93.041-35.953v-7.2913h-9.7218v14.583h9.7218zm70.078 0v-7.2913h-9.3167v14.583h9.3167zm-85.876-6.4582c0-5.5584-0.54861-5.2889 10.77-5.2889 8.4608 0 9.03 0.0476 10.037 0.83955 1.0182 0.80091 1.0673 1.0153 1.0673 4.6584v3.8188h48.609v-4.0278c0-5.5584-0.5486-5.2889 10.77-5.2889 8.4608 0 9.03 0.0476 10.037 0.83955 1.0182 0.80091 1.0673 1.0153 1.0673 4.6584v3.8188h7.7165c6.0538 0 7.9688-0.13043 8.8871-0.6053 2.4616-1.273 2.4349-1.0944 2.4349-16.276 0-9.6133-0.14334-14.18-0.46737-14.892-0.25706-0.56418-1.226-1.393-2.1533-1.8419-1.6672-0.80705-2.3647-0.81613-62.737-0.81613-65.541 0-62.592-0.092-64.468 2.0118-0.77771 0.87206-0.81015 1.4813-0.81015 15.213v14.305l1.0127 1.0898c0.55698 0.59938 1.3773 1.2406 1.8228 1.4249 0.44558 0.18431 4.3191 0.34666 8.6078 0.36078l7.7977 0.0257zm27.95-38.273c0-5.4314-1.1922-5.0941 17.979-5.0869 11.941 4e-3 16.094 0.13191 16.857 0.5172 0.95542 0.48231 1.0193 0.72251 1.1292 4.2473l0.11647 3.7361h4.4254v-5.4542c0-4.9779-0.0684-5.4909-0.78352-5.8736-0.51128-0.27363-8.1015-0.41933-21.845-0.41933-18.607 0-21.136 0.0742-21.698 0.63654-0.51303 0.51304-0.63654 1.6527-0.63654 5.8736v5.237h4.4558zm29.976 1.3884v-2.0254h-23.899v4.0507h23.899z"/><path id="m" d="m99.243 318.32c-3.519-0.78139-6.6236-2.9653-7.8671-5.5339-0.83189-1.7184-0.84203-2.1436-0.84203-35.307 0-33.424 0.0037-33.576 0.86292-35.35 0.5178-1.0696 1.6113-2.3258 2.7343-3.1408 3.4458-2.5011 4.5134-2.6238 22.831-2.6238h16.451l0.13045-6.1062 0.13045-6.1062 1.6703-1.557c0.91866-0.85635 2.3769-1.7532 3.2406-1.993 1.0339-0.28709 9.1802-0.43544 23.849-0.43432l22.279 2e-3 2.1192 0.98662c3.3751 1.5714 3.7511 2.5148 3.7529 9.4162l2e-3 5.7524 35.039 0.24244 2.3188 1.1386c2.6321 1.2925 5.0552 3.8615 5.388 5.7123 0.12366 0.68782 0.17193 16.471 0.10725 35.074l-0.11758 33.824-0.96465 1.3525c-0.53056 0.74389-1.6997 1.885-2.598 2.5357-3.486 2.5253 0.27859 2.395-67.703 2.3434-34.102-0.0258-62.369-0.12794-62.814-0.22688zm125.77-4.8915c0.77667-0.38954 1.6398-1.164 1.9181-1.7209 0.37858-0.75767 0.50751-5.0283 0.51198-16.959l6e-3 -15.946-1.114 0.29509c-0.61267 0.16229-4.8963 0.38175-9.5192 0.48769l-8.4053 0.19261v3.8128c0 5.7024 0.54544 5.4331-11.006 5.4331-11.529 0-10.868 0.32431-10.868-5.3288v-3.988h-48.609v3.8482c0 5.7435 0.55344 5.4685-11.006 5.4685-11.522 0-10.868 0.31868-10.868-5.2939v-3.9532l-8.6078-0.19126c-4.7343-0.1052-9.117-0.32592-9.7394-0.49048l-1.1316-0.29921 0.11888 16.221 0.11888 16.221 1.0127 1.0892c0.55698 0.59904 1.3773 1.24 1.8228 1.4243 0.44558 0.18431 28.517 0.34637 62.381 0.36015 57.839 0.0235 61.657-0.0179 62.983-0.6832zm-93.162-35.95v-7.0888h-9.7218v14.178h9.7218zm70.078 0v-7.0888h-9.3167v14.178h9.3167zm-85.876-6.2557c0-5.5695-0.58493-5.2889 11.027-5.2889 11.377 0 10.847-0.2671 10.847 5.4685v3.8482h48.609v-4.0278c0-5.5695-0.58493-5.2889 11.027-5.2889 11.377 0 10.847-0.2671 10.847 5.4685v3.8482h7.2832c8.2007 0 10.108-0.42047 11.163-2.4605 0.90821-1.7563 0.8708-27.826-0.0425-29.592-1.3011-2.516 2.4468-2.3784-64.792-2.3784-66.069 0-62.464-0.11342-64.401 2.0266-0.77669 0.8584-0.80919 1.4685-0.80919 15.189 0 13.722 0.03245 14.331 0.81015 15.203 1.5646 1.7534 2.7934 1.9798 10.836 1.9966l7.5952 0.0159zm27.95-38.303c0-5.4807-1.4781-5.0634 17.936-5.0634 14.111 0 16.437 0.0852 17.216 0.63058 0.8162 0.5717 0.90028 0.96889 0.90028 4.2533v3.6227h4.4558v-5.3875c0-3.6502-0.15675-5.5442-0.48609-5.8736-0.70112-0.70112-43.29-0.70112-43.991 0-0.32934 0.32933-0.48609 2.2234-0.48609 5.8736v5.3875h4.4558zm29.976 1.4178v-2.0254h-23.899v4.0508h23.899z"/></g><g stroke="#000" stroke-width="1.2968"><path id="n" d="m101.12 64.205c-2.6906-0.63567-2.6437-0.41734-2.8251-13.154-0.09032-6.3432-0.03862-12.873 0.1149-14.512 0.4731-5.0487-6.1454-4.5185 58.149-4.6575 30.411-0.06575 58.268 0.04322 61.904 0.24214 5.9854 0.32746 6.6944 0.44516 7.4939 1.2441 0.85886 0.85822 0.8867 1.1958 1.0154 12.315 0.0728 6.288 0.0111 12.761-0.13716 14.384-0.38928 4.2624-0.48119 4.3044-9.7996 4.4803l-7.4112 0.1399v-3.4592c0-3.0716-0.10943-3.5865-0.97677-4.5957l-0.97677-1.1365-7.8336-0.13104c-8.483-0.1419-11.588 0.0817-12.73 0.9168-0.59574 0.43562-0.76534 1.2674-0.90377 4.4323l-0.1704 3.8961h-46.892v-3.4205c0-3.0308-0.1113-3.5501-0.97678-4.5571l-0.97677-1.1365-7.8336-0.13104c-8.483-0.1419-11.588 0.0817-12.73 0.9168-0.59574 0.43562-0.76535 1.2674-0.90377 4.4323l-0.1704 3.8961-6.5342-0.04146c-3.5938-0.02281-7.1467-0.18619-7.8954-0.36308z"/><path id="o" d="m105.93 103.53c-3.0077-0.14401-5.8537-0.47716-6.3244-0.74034-0.53575-0.29953-0.95076-1.0525-1.1095-2.013-0.3619-2.1899-0.32389-30.008 0.0413-30.225 0.16709-0.0995 4.0862-0.08415 8.7091 0.0341l8.4053 0.215v3.6188c0 3.4597 0.0521 3.6709 1.1841 4.8029l1.1841 1.1841 7.8288-0.02415c12.938-0.03991 13.297-0.20472 13.297-6.0968v-3.6008h46.989v4.1883c0 4.1642 6e-3 4.1915 1.114 4.7441 1.3004 0.6489 12.705 1.0301 17.477 0.58417 4.354-0.40688 4.9037-1.0565 4.9037-5.7945v-3.6061l8.4053-0.215c4.6229-0.11825 8.542-0.1336 8.7091-0.0341 0.4807 0.28624 0.37179 30.035-0.11328 30.941-0.2294 0.42863-1.0041 1.1002-1.7216 1.4924-1.2263 0.67035-4.666 0.71588-57.407 0.75999-30.857 0.0258-58.564-0.0709-61.571-0.21491z"/><path id="p" d="m100.97 169.95c-0.83473-0.16198-1.8829-0.62498-2.3292-1.0289-0.78225-0.70793-0.81148-1.2412-0.81148-14.804 0-13.01 0.05562-14.139 0.7383-14.982 0.68286-0.84329 1.2187-0.93922 7.1351-1.2775 3.5183-0.20115 31.394-0.31233 61.947-0.24708 55.203 0.11791 55.559 0.12386 56.968 0.95081 1.1783 0.69161 1.464 1.1363 1.6915 2.633 0.353 2.3219 0.40707 22.601 0.0678 25.426-0.40011 3.3317-0.81072 3.4858-9.7409 3.6544l-7.4112 0.1399v-3.4592c0-3.0717-0.10942-3.5865-0.97685-4.5957l-0.97685-1.1365-8.6437-0.12609c-9.5133-0.13876-10.947-1e-3 -12.109 1.1614-0.66335 0.66335-0.78756 1.3625-0.78756 4.4332v3.6457h-46.989v-3.4206c0-3.0309-0.11129-3.55-0.97685-4.5571l-0.97686-1.1365-8.6437-0.12609c-9.5133-0.13876-10.947-1e-3 -12.109 1.1614-0.66335 0.66335-0.78755 1.3625-0.78755 4.4332v3.6457l-6.3799-0.0466c-3.509-0.0256-7.0629-0.17911-7.8976-0.34109z"/><path id="q" d="m117.18 209.26-17.308-0.23994-2.2456-2.2469v-15.147c0-8.3309 0.09291-15.24 0.20646-15.354 0.11355-0.11351 4.0782-0.10073 8.8104 0.0284l8.6039 0.23479v3.561c0 3.1791 0.10474 3.6829 0.97672 4.6975l0.97672 1.1365 7.226 0.13306c9.3381 0.17196 12.102-0.11109 13.359-1.3682 0.86365-0.86365 0.95596-1.3098 0.95596-4.62v-3.6641h46.989v8.4083l1.3165 0.55548c1.4595 0.61583 17.796 0.81822 19.841 0.24582 1.6668-0.46646 2.3366-2.1716 2.3366-5.9489v-3.2607h4.3928c2.416 0 6.3471-0.11958 8.7357-0.26573l4.3429-0.26572-0.12791 15.355c-0.0954 11.453-0.25834 15.583-0.64114 16.252-0.28669 0.50143-1.1807 1.071-2.0254 1.2905-1.8178 0.47219-81.48 0.83218-106.72 0.48227z"/><path id="r" d="m100.89 274.04c-3.1105-0.59884-3.0631-0.35124-3.0631-16.005 0-12.808 0.057-13.956 0.73499-14.793 0.67313-0.83127 1.2442-0.93908 6.785-1.2809 7.1159-0.43895 117.31-0.19063 118.98 0.26811 0.61943 0.17023 1.3388 0.69735 1.5987 1.1714 0.58076 1.0594 0.93607 22.193 0.44282 26.339-0.50986 4.286-0.78534 4.4154-9.8537 4.6294l-7.2891 0.17204v-3.52c0-4.0451-0.29906-4.8296-2.0773-5.4495-1.7188-0.59919-17.621-0.59919-19.34 0-1.7746 0.61863-2.0773 1.4053-2.0773 5.3993v3.4698h-46.989v-3.4698c0-3.994-0.30265-4.7806-2.0773-5.3993-1.7188-0.59919-17.621-0.59919-19.34 0-1.7746 0.61863-2.0773 1.4053-2.0773 5.3993v3.4698l-6.3799-0.0466c-3.509-0.0256-7.0978-0.18478-7.9751-0.35369z"/><path id="s" d="m107.25 312.94c-7.3802-0.20823-7.8351-0.26727-8.6954-1.1287-0.90252-0.90367-0.90881-0.99964-1.0723-16.369l-0.16446-15.46 5.2142 0.26592c2.8678 0.14625 6.9004 0.26666 8.9612 0.26756l3.7469 2e-3v3.4698c0 3.994 0.30265 4.7806 2.0773 5.3993 1.7188 0.59919 17.621 0.59919 19.34 0 1.7746-0.61864 2.0773-1.4053 2.0773-5.3993v-3.4698h46.989v3.4698c0 3.994 0.30265 4.7806 2.0773 5.3993 1.7188 0.59919 17.621 0.59919 19.34 0 1.7746-0.61864 2.0773-1.4053 2.0773-5.3993v-3.4698h3.7846c2.0815 0 6.016-0.11998 8.7432-0.26662l4.9586-0.26662-0.13538 15.446-0.13537 15.446-0.9224 0.92229c-0.77485 0.77475-1.5201 0.9648-4.6584 1.188-4.4061 0.31342-102.27 0.27377-113.6-0.046z"/><path id="t" d="m140.77 21.368c3e-3 -2.395 0.17893-4.628 0.39003-4.9622 0.33016-0.52266 2.9485-0.62374 18.728-0.72299 10.09-0.06346 19.621 0.02768 21.18 0.20254l2.8355 0.31791 0.11412 4.7596 0.11412 4.7596h-2.8285l-0.11765-3.2998c-0.11002-3.0858-0.19174-3.355-1.2605-4.152-1.099-0.81954-1.6548-0.85692-14.48-0.97403-7.3354-0.06698-14.926 0.05287-16.869 0.26633-4.5421 0.4991-4.9775 0.951-4.9775 5.1663v2.9932h-2.8355z"/><path id="u" d="m140.36 127.09c3e-3 -2.395 0.17892-4.628 0.39003-4.9622 0.33016-0.52267 2.9485-0.62374 18.728-0.72299 10.09-0.0635 19.621 0.0277 21.18 0.20254l2.8355 0.31791 0.11413 4.7596 0.11412 4.7596h-2.7596l-0.18118-3.452c-0.0996-1.8986-0.38127-3.6521-0.62583-3.8966-0.24455-0.24455-1.234-0.59719-2.1988-0.78364-2.3997-0.46376-29.716-0.44614-31.73 0.0205-2.4403 0.56541-3.0381 1.5726-3.0381 5.1186v2.9932h-2.8355z"/><path id="v" d="m140.36 231.2c3e-3 -2.395 0.17904-4.628 0.3903-4.9622 0.58033-0.91803 41.97-0.91803 42.55 0 0.21125 0.33419 0.38689 2.5672 0.3903 4.9622l6e-3 4.3546h-2.8355v-3.1957c0-2.5422-0.15828-3.3913-0.77395-4.152l-0.77394-0.95629-15.125-0.12991c-16.649-0.14299-18.854-0.0137-20.137 1.181-0.74012 0.68952-0.86223 1.26-0.86223 4.0281v3.2248h-2.8355z"/><path id="w" d="m193.83 67.865v-6.4964h8.1015l-0.0404 5.3672c-0.0584 7.7617 0.1684 7.3686-4.3315 7.5091l-3.7296 0.11647z"/><path id="x" d="m123.35 67.85v-6.4812h8.1015v12.962h-8.1015z"/><path id="y" d="m122.94 173.57v-6.4812h8.1015v12.962h-8.1015z"/><path id="z" d="m193.42 173.57v-6.4812h7.6964v12.962h-7.6964z"/><path id="aa" d="m193.42 277.48v-6.2786h7.6964v12.557h-7.6964z"/><path id="ab" d="m122.94 277.48v-6.2786h8.1015v12.557h-8.1015z"/></g></svg>
