<svg width="40" height="40" viewBox="0 0 40 40" fill="none" xmlns="http://www.w3.org/2000/svg">
<g id="currency_exchange">
<mask id="mask0_6_79" style="mask-type:alpha" maskUnits="userSpaceOnUse" x="0" y="0" width="41" height="40">
<rect id="Bounding box" x="0.5" width="40" height="40" fill="#D9D9D9"/>
</mask>
<g mask="url(#mask0_6_79)">
<path id="currency_exchange_2" d="M23.9909 20.8273C23.4939 20.2273 22.6091 19.6727 21.3364 19.1636C20.2697 18.7515 19.5091 18.3849 19.0545 18.0636C18.6 17.7424 18.3727 17.3091 18.3727 16.7636C18.3727 16.2303 18.5652 15.8091 18.95 15.5C19.3348 15.1909 19.8697 15.0364 20.5545 15.0364C21.1121 15.0364 21.5788 15.1682 21.9545 15.4318L23.9909 20.8273ZM23.9909 20.8273C24.4879 21.4273 24.7364 22.1636 24.7364 23.0364C24.7364 23.5152 24.6515 23.9485 24.4818 24.3364C24.3121 24.7242 24.0773 25.0561 23.7773 25.3318C23.4773 25.6076 23.1152 25.8318 22.6909 26.0046L23.9909 20.8273ZM14.7 30.3364L14.4409 30.764C16.3452 31.9179 18.3675 32.5 20.5 32.5C22.2195 32.5 23.8418 32.1737 25.3616 31.5182C26.8727 30.8666 28.1985 29.9722 29.3354 28.8354C30.4722 27.6985 31.3666 26.3727 32.0182 24.8616C32.6737 23.3418 33 21.7195 33 20V19.5H32.5H30.6818H30.1818V20C30.1818 21.3343 29.9267 22.5861 29.4184 23.7605C28.9061 24.9444 28.2138 25.9701 27.3419 26.8419C26.4701 27.7138 25.4444 28.4061 24.2605 28.9184C23.0861 29.4267 21.8343 29.6818 20.5 29.6818C18.857 29.6818 17.2644 29.2069 15.7148 28.2395C14.4646 27.4591 13.4432 26.5753 12.6429 25.5909H15.0455H15.5455V25.0909V23.2727V22.7727H15.0455H8.5H8V23.2727V29.8182V30.3182H8.5H10.3182H10.8182V29.8182V27.7893C11.8139 28.9139 13.0232 29.9049 14.4409 30.764L14.7 30.3364ZM19.1455 27.7636V28.2636H19.6455H21.2818H21.7818V27.7636V26.7894C22.17 26.7141 22.5363 26.6074 22.8794 26.4676C23.3521 26.2752 23.7667 26.0207 24.1157 25.6999C24.4688 25.3753 24.7435 24.9857 24.9399 24.5368C25.1406 24.0779 25.2364 23.5751 25.2364 23.0364C25.2364 22.0621 24.9562 21.2088 24.376 20.5083L24.376 20.5083C23.7993 19.8121 22.8216 19.2192 21.5221 18.6994L21.5221 18.6994L21.5166 18.6972C20.4569 18.2878 19.7447 17.9391 19.3431 17.6553C19.0179 17.4255 18.8727 17.1428 18.8727 16.7636C18.8727 16.3679 19.0069 16.0956 19.2631 15.8898L19.2631 15.8898C19.5303 15.6752 19.94 15.5364 20.5545 15.5364C21.0318 15.5364 21.3924 15.6482 21.6674 15.8411L21.6674 15.8411C21.9627 16.0484 22.214 16.3483 22.4131 16.7622L22.6243 17.2014L23.0688 17.0014L24.5234 16.3469L24.9712 16.1453L24.7778 15.6939C24.4735 14.9839 24.0269 14.3956 23.4373 13.9406C22.9608 13.5727 22.4249 13.3285 21.8364 13.207V12.2545V11.7545H21.3364H19.7H19.2V12.2545V13.2276C18.3908 13.426 17.708 13.8068 17.1742 14.3829C16.553 15.0531 16.2364 15.8545 16.2364 16.7636C16.2364 17.7504 16.5381 18.5898 17.1793 19.2273C17.7768 19.8214 18.6535 20.3309 19.7694 20.7736C20.9575 21.25 21.7145 21.6559 22.0999 21.9818L22.0999 21.9818C22.4426 22.2716 22.6 22.6123 22.6 23.0364C22.6 23.4688 22.4414 23.7735 22.1145 24.0064C21.7515 24.265 21.2842 24.4091 20.6818 24.4091C20.1135 24.4091 19.6205 24.2465 19.1852 23.9219C18.7573 23.6028 18.442 23.1476 18.2506 22.5257L18.0969 22.026L17.6046 22.2019L16.0773 22.7473L15.5884 22.9219L15.7812 23.4039C16.1423 24.3066 16.6247 25.0492 17.2404 25.6104L17.5773 25.2409L17.2404 25.6104C17.77 26.0932 18.4086 26.4492 19.1455 26.6854V27.7636ZM8 20V20.5H8.5H10.3182H10.8182V20C10.8182 18.6657 11.0733 17.4139 11.5816 16.2395C12.0939 15.0556 12.7862 14.0299 13.6581 13.1581C14.5299 12.2862 15.5556 11.5939 16.7395 11.0816C17.9139 10.5733 19.1657 10.3182 20.5 10.3182C22.1558 10.3182 23.751 10.7934 25.2936 11.76C26.539 12.5405 27.5579 13.4243 28.3575 14.4091H25.9545H25.4545V14.9091V16.7273V17.2273H25.9545H32.5H33V16.7273V10.1818V9.68182H32.5H30.6818H30.1818V10.1818V12.2107C29.1861 11.0861 27.9768 10.0951 26.5591 9.23602L26.3 9.66364L26.5591 9.23602C24.6548 8.0821 22.6325 7.5 20.5 7.5C18.7805 7.5 17.1582 7.82635 15.6384 8.48178C14.1273 9.13341 12.8015 10.0278 11.6646 11.1646C10.5278 12.3015 9.63341 13.6273 8.98178 15.1384C8.32635 16.6582 8 18.2805 8 20Z" fill="#FDCC4E" stroke="#A9C3C7"/>
</g>
</g>
</svg>
