<svg width="40" height="40" viewBox="0 0 40 40" fill="none" xmlns="http://www.w3.org/2000/svg">
<g id="settings">
<mask id="mask0_5_490" style="mask-type:alpha" maskUnits="userSpaceOnUse" x="-1" y="-1" width="42" height="42">
<rect id="Bounding box" x="-0.5" y="-0.5" width="41" height="41" fill="#D9D9D9" stroke="#A9C3C7"/>
</mask>
<g mask="url(#mask0_5_490)">
<path id="settings_2" d="M16.6483 32.5L16.5854 32.0729L16.0673 28.5574C15.7886 28.4386 15.5076 28.2968 15.2243 28.1326C14.9457 27.9712 14.6852 27.8027 14.4435 27.6269L11.1633 29.0868L10.7502 29.2706L10.5259 28.8781L7.56588 23.6981L7.34543 23.3123L7.70263 23.048L10.6512 20.8667C10.6407 20.7676 10.6338 20.666 10.6303 20.562L16.6483 32.5ZM16.6483 32.5H17.08H16.6483ZM7.34543 16.6877L7.56588 16.3019L10.5259 11.1219L10.7502 10.7294L11.1633 10.9132L14.4437 12.3732C14.6867 12.1969 14.9494 12.0281 15.2311 11.8664L15.2311 11.8664C15.514 11.7039 15.7931 11.5664 16.0682 11.455L16.5853 7.92748L16.648 7.5H17.08H22.96H23.3917L23.4547 7.92711L23.9726 11.4416C24.2493 11.5578 24.5305 11.6948 24.8161 11.852C25.1033 12.0101 25.368 12.1818 25.6088 12.3677L28.8767 10.9132L29.2898 10.7294L29.5141 11.1219L32.4741 16.3019L32.6964 16.6909L32.3341 16.9544L29.3876 19.0973C29.3987 19.2026 29.406 19.3095 29.4097 19.4181M7.34543 16.6877L28.91 19.435M7.34543 16.6877L7.70263 16.952M7.34543 16.6877L7.70263 16.952M29.4097 19.4181L28.91 19.435M29.4097 19.4181C29.4097 19.4181 29.4097 19.4181 29.4097 19.418L28.91 19.435M29.4097 19.4181C29.4166 19.6199 29.42 19.8139 29.42 20C29.42 20.1862 29.4166 20.377 29.4097 20.5725M28.91 19.435C28.9167 19.6317 28.92 19.82 28.92 20C28.92 20.18 28.9167 20.365 28.91 20.555M29.4097 20.5725L28.91 20.555M29.4097 20.5725C29.4097 20.5725 29.4097 20.5726 29.4097 20.5726L28.91 20.555M29.4097 20.5725C29.406 20.6792 29.3977 20.7849 29.3847 20.8895L32.3257 23.0468L32.6855 23.3107L32.4641 23.6981L29.5041 28.8781L29.2796 29.271L28.8662 29.0866L25.597 27.6274M28.91 20.555L25.597 27.6274M25.597 27.6274C25.6802 27.5663 25.7613 27.5046 25.8401 27.4422L25.53 27.05L25.3262 27.5066L25.597 27.6274ZM7.70263 16.952L10.6512 19.1333M7.70263 16.952L10.6512 19.1333M10.6512 19.1333C10.6407 19.2324 10.6338 19.334 10.6303 19.438L10.6512 19.1333ZM23.9712 28.5679L24.0146 28.2729L23.52 28.2L23.6753 28.6752C23.7741 28.643 23.8727 28.6072 23.9712 28.5679ZM21.5899 26.2147L21.2573 26.297L21.214 26.6369L20.8496 29.5H19.1817L18.8262 26.6384L18.7838 26.2972L18.4501 26.2147C17.8486 26.0658 17.2843 25.8384 16.7555 25.5323C16.2245 25.2249 15.7416 24.8508 15.3061 24.409L15.0661 24.1656L14.7522 24.3008L12.0556 25.4627L11.3017 24.1195L13.6877 22.3518L13.9603 22.1497L13.8733 21.8218C13.7913 21.5127 13.7286 21.2081 13.6848 20.9079C13.6417 20.6125 13.62 20.3099 13.62 20C13.62 19.6829 13.6418 19.3771 13.6848 19.0821C13.7286 18.7819 13.7913 18.4773 13.8733 18.1682L13.9605 17.8394L13.6867 17.6376L11.3022 15.8796L12.0562 14.5363L14.7534 15.6897L15.0741 15.8269L15.3135 15.5733C15.7338 15.1283 16.2074 14.7535 16.7355 14.4477C17.2601 14.144 17.8271 13.924 18.4385 13.7881L18.7816 13.7118L18.826 13.3631L19.1904 10.5H20.8583L21.2138 13.3616L21.2593 13.7275L21.6223 13.7922C22.2385 13.9021 22.7993 14.1099 23.3085 14.4142L23.3085 14.4142C23.8283 14.7248 24.2985 15.1114 24.7196 15.5758L24.9596 15.8406L25.2879 15.6992L27.9844 14.5373L28.7384 15.8805L26.3524 17.6482L26.0667 17.8599L26.1728 18.1991C26.2641 18.4913 26.3276 18.7837 26.3638 19.0764L26.86 19.015L26.3638 19.0764C26.4012 19.3789 26.42 19.6867 26.42 20C26.42 20.3099 26.3983 20.6144 26.3551 20.9136C26.3114 21.2166 26.2489 21.5185 26.1674 21.8193L26.0782 22.1486L26.3524 22.3518L28.7384 24.1195L27.9838 25.4637L25.2866 24.3103L24.9756 24.1773L24.7364 24.4165C24.3005 24.8524 23.8168 25.2241 23.2845 25.5323C22.7558 25.8384 22.1914 26.0658 21.5899 26.2147ZM10.62 20C10.62 20.1732 10.6235 20.3606 10.6303 20.5619V19.4381C10.6235 19.6394 10.62 19.8268 10.62 20ZM20.04 24.5C21.2788 24.5 22.3495 24.0577 23.2236 23.1835C24.0977 22.3094 24.54 21.2388 24.54 20C24.54 18.7612 24.0977 17.6906 23.2236 16.8165C22.3495 15.9423 21.2788 15.5 20.04 15.5C18.7954 15.5 17.7224 15.9418 16.8507 16.8172C15.9802 17.6915 15.54 18.7619 15.54 20C15.54 21.2381 15.9802 22.3085 16.8507 23.1828C17.7224 24.0582 18.7954 24.5 20.04 24.5Z" fill="#FDCC4E" stroke="#A9C3C7"/>
</g>
</g>
</svg>
