<svg width="39" height="40" viewBox="0 0 39 40" fill="none" xmlns="http://www.w3.org/2000/svg">
<g id="finance">
<mask id="mask0_5_400" style="mask-type:alpha" maskUnits="userSpaceOnUse" x="0" y="0" width="41" height="40">
<rect id="Bounding box" x="0.5" width="40" height="40" fill="#D9D9D9"/>
</mask>
<g mask="url(#mask0_5_400)">
<path id="finance_2" d="M8.5 7.5H8V8V29.7778C8 30.516 8.27711 31.162 8.80755 31.6925C9.33799 32.2229 9.98396 32.5 10.7222 32.5H32.5H33V32V29.7778V29.2778H32.5H11.2222V8V7.5H10.7222H8.5ZM12.3333 27.6667V28.1667H12.8333H17.2555H17.7555V27.6667V16.2445V15.7445H17.2555H12.8333H12.3333V16.2445V27.6667ZM18.9556 27.6667V28.1667H19.4556H23.8778H24.3778V27.6667V9.44443V8.94443H23.8778H19.4556H18.9556V9.44443V27.6667ZM25.4889 27.6667V28.1667H25.9889H30.4111H30.9111V27.6667V21.6667V21.1667H30.4111H25.9889H25.4889V21.6667V27.6667Z" fill="#FDCC4E" stroke="#A9C3C7"/>
</g>
</g>
</svg>
