<?xml version="1.0" encoding="UTF-8"?>
<svg id="a" enable-background="new 0 0 325.68 325.68" version="1.1" viewBox="0 0 325.68 325.68" xml:space="preserve" xmlns="http://www.w3.org/2000/svg">
<g id="b" transform="matrix(.89018 0 0 .86903 18.935 10.601)">
	<g id="c">
		<path id="d" d="m298.18 59.218h-69.84v-31.086c0-10.752-8.748-19.5-19.5-19.5h-92c-10.752 0-19.5 8.748-19.5 19.5v31.086h-69.84c-15.164 0-27.5 12.337-27.5 27.5v202.83c0 15.163 12.336 27.5 27.5 27.5h270.68c15.164 0 27.5-12.337 27.5-27.5v-202.83c0-15.163-12.337-27.5-27.5-27.5zm-185.84-31.086c0-2.481 2.019-4.5 4.5-4.5h92c2.481 0 4.5 2.019 4.5 4.5v31.086h-9v-19.086c0-4.142-3.358-7.5-7.5-7.5h-68c-4.142 0-7.5 3.358-7.5 7.5v19.086h-9zm77 19.5v11.586h-53v-11.586zm121.34 241.92c0 6.892-5.607 12.5-12.5 12.5h-270.68c-6.893 0-12.5-5.608-12.5-12.5v-96.938c7.543 3.867 10.578 3.018 42.44 3.018v22c0 4.143 3.358 7.5 7.5 7.5h35.8c4.142 0 7.5-3.357 7.5-7.5v-22h109.2v22c0 4.143 3.358 7.5 7.5 7.5h35.8c4.142 0 7.5-3.357 7.5-7.5v-22c31.92 0 34.913 0.841 42.44-3.018zm-238.24-79.42v-44h20.8v44zm160 0v-44h20.8v44zm78.24-42c0 6.893-5.607 12.5-12.5 12.5h-29.94v-22c0-4.143-3.358-7.5-7.5-7.5h-35.8c-4.142 0-7.5 3.357-7.5 7.5v22h-109.2v-22c0-4.143-3.358-7.5-7.5-7.5h-35.8c-4.142 0-7.5 3.357-7.5 7.5v22h-29.94c-6.893 0-12.5-5.607-12.5-12.5v-81.41c0-6.893 5.607-12.5 12.5-12.5h270.68c6.893 0 12.5 5.607 12.5 12.5z"/>
	</g>
</g>
<path id="e" d="m38.214 285.28c-9.057-1.9688-16.376-9.1405-18.449-18.077-0.55201-2.3802-0.61688-14.153-0.51992-94.359l0.11079-91.639 1.094-2.8102c2.9352-7.5396 8.8809-12.979 16.808-15.377 2.0288-0.61366 6.1385-0.71225 35.408-0.84941l33.112-0.15517 0.25764-30.881 1.3357-2.8195c2.2327-4.713 6.2572-8.0556 11.271-9.3611 2.1869-0.56946 7.9783-0.65304 45.25-0.65304 47.161 0 45.435-0.09135 50.015 2.6477 2.8698 1.7164 4.8636 3.9926 6.5267 7.4509l1.3152 2.735 0.25764 30.881 33.112 0.15517c36.462 0.17087 34.654 0.04278 40.379 2.861 3.1282 1.54 7.454 5.4299 9.3852 8.4393 0.74675 1.1637 1.85 3.3804 2.4518 4.9261l1.094 2.8102 0.11078 91.639c0.12316 101.87 0.32998 94.313-2.7436 100.19-3.1688 6.0554-9.5293 10.835-16.302 12.251-4.2313 0.88448-247.21 0.88243-251.28-2e-3zm250.33-12.83c2.6248-0.98204 4.9623-3.2139 6.1728-5.8936 0.84199-1.864 0.85548-2.5716 0.86457-45.384 9e-3 -41.262-0.0285-43.474-0.72711-43.17-4.8471 2.106-4.477 2.0663-21.354 2.2916l-15.989 0.2135-0.21039 10.805c-0.30857 15.848 1.5103 14.65-22.244 14.651-16.949 8.4e-4 -17.446-0.0227-18.99-0.89051-0.87208-0.49013-1.9866-1.6047-2.4767-2.4767-0.84061-1.4957-0.89116-2.1731-0.89116-11.942v-10.357h-97.62v10.357c0 9.7694-0.0506 10.447-0.89116 11.942-0.49013 0.87207-1.6047 1.9866-2.4768 2.4767-1.544 0.8678-2.0417 0.89114-18.99 0.89051-19.171-8.5e-4 -19.214-6e-3 -21.162-2.6589-0.81329-1.1076-0.8855-1.9081-1.0818-11.992l-0.21039-10.805-15.989-0.2135c-16.877-0.22536-16.507-0.18565-21.354-2.2916-0.69862-0.30354-0.73615 1.9088-0.73225 43.17l0.0041 43.49 0.9963 2.1039c1.2676 2.6768 3.3414 4.6472 5.9724 5.6745 2.0239 0.79029 4.7809 0.8086 124.6 0.82785 121.4 0.0195 122.56 0.0119 124.78-0.81917zm-186.51-98.464v-19.356h-18.935v38.711h18.935zm142.64 0v-19.356h-18.935v38.711h18.935zm-174.2-16.91c0-10.236 0.03173-10.645 0.92751-11.952 2.0268-2.9579 1.5827-2.8931 20.742-3.0245 17.245-0.11822 17.253-0.11789 19.121 0.84155 3.5747 1.8359 3.5841 1.8712 3.7266 14.034l0.12544 10.7h97.539l0.12543-10.7c0.14258-12.162 0.15196-12.198 3.7267-14.034 1.8681-0.95944 1.8756-0.95977 19.121-0.84155 19.16 0.13134 18.716 0.0666 20.742 3.0245 0.89579 1.3073 0.92751 1.7161 0.92751 11.952v10.599l14.832-4e-3c14.66-4e-3 14.857-0.0155 16.945-0.98793 2.4904-1.1597 4.3976-2.9562 5.5044-5.1848 0.76372-1.5378 0.80321-3.266 0.91011-39.823 0.10662-36.461 0.0759-38.296-0.6698-39.974-1.1488-2.5848-2.7625-4.2908-5.2149-5.5129l-2.1766-1.0846h-247.09l-2.1766 1.0847c-2.4178 1.2048-4.0434 2.9055-5.1976 5.4374-0.72401 1.5883-0.76777 3.8069-0.77649 39.373-0.01028 41.935-0.13773 40.004 2.8431 43.083 0.86116 0.88979 2.5125 2.0602 3.6696 2.601 2.0793 0.97168 2.2768 0.98319 16.936 0.98725l14.832 4e-3zm56.806-104.17c2e-3 -10.214 0.18687-10.988 3.0452-12.731 1.3368-0.81509 2.1815-0.83613 33.561-0.83613s32.224 0.02104 33.561 0.83613c2.8583 1.7427 3.0434 2.5166 3.0452 12.731l2e-3 9.1519h8.4155v-28.677l-1.23-1.23-1.23-1.23h-85.126l-2.4599 2.4599v28.677h8.4155l2e-3 -9.1519zm60.59 4.1026v-5.0493h-47.968v10.099h47.968z" fill="#fff" stroke="#000" stroke-width="1.347"/><g stroke="#000" stroke-width="1.347"><path id="f" d="m119.71 47.676v-13.547l1.1307-1.1802 1.1307-1.1802h84.361l0.8702 1.2221c0.83629 1.1745 0.8702 1.7483 0.8702 14.727v13.505h-6.7324v-8.0188c0-9.2893-0.35118-11.24-2.3375-12.984-1.1049-0.97012-1.9497-1.2826-4.0525-1.4991-1.4611-0.15039-16.513-0.21409-33.448-0.14155-30.339 0.12995-30.808 0.14464-31.953 0.99943-2.841 2.1217-2.8831 2.2937-3.0375 12.417l-0.14076 9.2271h-6.6613z"/><path id="g" d="m40.99 166.45c-3.5173-0.68758-6.8621-3.8762-7.4052-7.0595-0.18921-1.109-0.34403-18.774-0.34403-39.255 0-34.432 0.05458-37.338 0.72407-38.561 1.0019-1.8305 3.0649-3.8134 4.9882-4.7946 1.5962-0.81432 3.2576-0.8253 124.94-0.8253 121.68 0 123.34 0.01098 124.94 0.8253 1.9233 0.98121 3.9863 2.9641 4.9883 4.7946 0.65716 1.2006 0.73533 3.5778 0.84595 25.728 0.067 13.423-0.0285 30.968-0.21224 38.99l-0.33412 14.585-1.3014 1.6147c-0.7158 0.88807-2.2145 2.1827-3.3304 2.877l-2.029 1.2623-29.27 0.26849-0.25188-20.95-1.1484-1.7341c-0.79898-1.2065-1.6312-1.8846-2.735-2.2285-2.2244-0.69305-33.768-1.0751-36.132-0.43763-2.3194 0.62539-4.455 2.1212-5.1946 3.6384-0.46115 0.946-0.65119 3.7072-0.78807 11.45l-0.18036 10.204h-95.73l-0.18037-10.204c-0.13687-7.7432-0.32691-10.504-0.78807-11.45-0.73959-1.5172-2.8752-3.013-5.1946-3.6384-2.3642-0.63748-33.907-0.25542-36.132 0.43763-1.1038 0.34393-1.9361 1.022-2.735 2.2285l-1.1484 1.7341-0.12576 10.446-0.12576 10.446-13.549-0.0484c-7.4522-0.0266-14.228-0.18103-15.057-0.34315z"/><path id="h" d="m46.846 272.06c-7.4328-0.24216-7.4346-0.24246-9.2571-1.5209-1.0025-0.70329-2.4382-2.3044-3.1903-3.558l-1.3675-2.2793 0.0046-41.044c0.0025-22.574 0.12442-41.769 0.27084-42.655 0.23094-1.3977 0.38365-1.5751 1.1525-1.3391 0.48746 0.14963 1.549 0.46521 2.359 0.70129 0.80999 0.23607 8.3438 0.55465 16.742 0.70794 12.905 0.23558 15.331 0.37644 15.667 0.90989 0.21916 0.34714 0.41519 4.3235 0.43562 8.8363 0.02044 4.5128 0.18018 9.2104 0.35497 10.439 0.44431 3.1231 1.9577 4.5846 5.3168 5.1347 3.1438 0.5148 33.068 0.52977 35.276 0.0176 2.0301-0.47101 4.3478-2.6646 4.8945-4.6325 0.22787-0.82026 0.41537-5.7991 0.41666-11.064l2e-3 -9.5726h95.937l3e-3 9.5726c1e-3 5.265 0.19439 10.264 0.42912 11.109 0.66441 2.3921 3.2101 4.4343 5.9479 4.7716 1.2356 0.15223 9.5365 0.2153 18.446 0.14016 22.468-0.1895 21.133 0.72676 21.46-14.725 0.11571-5.4778 0.36783-10.117 0.56026-10.309s7.1983-0.47478 15.569-0.62808c8.3704-0.15329 15.882-0.47187 16.692-0.70794 0.81-0.23608 1.8829-0.55462 2.3842-0.70788 0.83576-0.2555 0.93433-0.0918 1.1864 1.9703 0.15101 1.2369 0.21421 20.521 0.14027 42.854-0.12542 37.881-0.18432 40.696-0.87815 41.966-1.0355 1.8948-3.2424 4.0122-5.1878 4.9774-1.6122 0.7999-3.7887 0.81552-117.99 0.84675-63.989 0.0175-119.69-0.0772-123.78-0.21039z"/><path id="i" d="m83.945 173.99v-18.514h17.252v37.028h-17.252z"/><path id="j" d="m226.59 173.99v-18.514h17.252v37.028h-17.252z"/></g><g id="k" transform="matrix(1.3519 0 0 1.3645 254.99 -237.45)" fill="#fff" stroke="#7a7a7a" stroke-linecap="round" stroke-linejoin="round" stroke-width="5.3367" style="shape-inside:url(#rect1595);white-space:pre" aria-label="+"><path id="l" d="m44.299 353.36h-51.094v51.094h-15.563v-51.094h-51.094v-15h51.094v-51.094h15.563v51.094h51.094z"/></g></svg>
