<?xml version="1.0" encoding="UTF-8"?>
<svg width="127mm" height="143.9mm" version="1.1" viewBox="0 0 127 143.9" xmlns="http://www.w3.org/2000/svg">
 <path transform="matrix(.9086 .03197 -.02374 1.244 47.57 -44.92)" d="m18.91 37.03 65.53 107.1-125.5 3.184z" fill="#f6e7cb" style="paint-order:stroke fill markers"/>
 <path d="m27.75 87.49-10.08 23.97 23.38 25.4 3.852 2e-3 52.15-3.664z" opacity=".7774" style="mix-blend-mode:soft-light;paint-order:stroke markers fill"/>
 <path d="m123.6 117.6-119.1-0.041" fill="#cba26e" fill-opacity=".3216" stroke="#c9c7be" stroke-linecap="round" stroke-linejoin="bevel" stroke-width="3.511" style="paint-order:normal"/>
 <g transform="matrix(-.3677 -.02184 -.02178 .422 50.49 54.03)">
  <path d="m33.21 30.28c-2.305-0.5988-4.007-2.418-5.927-3.72-4.083-3.335-7.513-7.506-9.709-12.32-1.246-2.481-2.476-5.002-4.138-7.225-1.47-0.582-1.331 2.159-1.855 3.087-0.9343 3.302-0.9397 6.834-0.2314 10.18 0.4153 2.57 1.112 2.293 3.273 3.781 20.1 9.214 5.27 4.037 8.05 4.883 8.986 2.735 4.706 3.262 5.122 3.314 3.005 0.3777 5.541 3.162 5.744 3.814-6.167-8.62-18.44-11.02-20.07-12.21-1.074-1.3-1.704 0.04783-0.4771 2.148 0.9136 3.73 1.87 5.716 5.15 7.815 1.167 0.4159 17.79 4.963 11.58 7.63 3.674-3.759-8.276-5.215-10.38-6.527-1.191-0.7912-7.22-6.688-3.983 0.8756 6.245 4.662-0.4126 1.425 0.6216 3.151 4.531 3.808 4.664 2.866 7.136 3.997 1.778 0.6862 3.384 1.82 5.2 2.39-0.7399-1.332-3.122-1.203-3.904 0.1836-0.679 1.932 1.846 3.045 3.297 3.616 3.196 0.9487 6.785-0.572 8.773-3.134 1.195-1.755 2.072-3.707 2.132-5.873 0.1383-1.864-0.2525-3.803-0.91-5.552-0.6857-1.959 0.7057-0.8352 0.5482-2.948-0.3563-2.201-6.209-2.608-6.246-4.835z" fill="#a3c6cb" stroke="#47696c" stroke-linecap="round" stroke-linejoin="round" stroke-opacity=".1321" stroke-width=".994" style="paint-order:normal"/>
  <path d="m62.59 39.75c2.232 0.832 4.67 0.3181 6.989 0.3528 5.257-0.389 10.46-1.838 15.02-4.519 2.444-1.318 4.898-2.677 7.534-3.544 1.538 0.3664-0.1485 2.532-0.252 3.593-1.129 3.241-3.151 6.137-5.649 8.469-1.814 1.867-2.227 1.24-4.85 1.219-21.75-3.984-6.633 0.2832-9.395-0.6186-8.929-2.915-5.726-0.02812-6.097-0.2241-2.678-1.415-6.352-0.5887-6.893-0.1714 9.997-3.522 21.43 1.548 23.44 1.51 1.626-0.4487 1.368 1.017-0.8414 2.033-2.888 2.531-4.811 3.609-8.701 3.446-1.194-0.3287-17.42-6.141-13.86-0.3907-0.8532-5.186 9.771 0.4766 12.25 0.6081 1.43 0.03531 9.751-1.336 2.76 3.002-7.789 0.236-0.4798 1.404-2.317 2.224-5.895 0.5194-5.464-0.328-8.138-0.8199-1.85-0.4582-3.816-0.4509-5.63-1.025 1.37-0.6669 3.247 0.8055 3.093 2.39-0.5522 1.972-3.259 1.435-4.775 1.071-3.162-1.056-5.229-4.361-5.388-7.6 0.02789-2.123 0.4301-4.225 1.622-6.034 0.956-1.606 2.388-2.97 3.931-4.026 1.685-1.211-0.09885-1.089 1.242-2.729 1.554-1.598 6.581 1.426 7.889-0.3773z" fill="#a3c6cb" stroke="#47696c" stroke-linecap="round" stroke-linejoin="round" stroke-opacity=".07517" stroke-width=".994" style="paint-order:normal"/>
  <g stroke="#fdcc4e" stroke-width="3.822" style="paint-order:markers stroke fill">
   <path d="m34.94 37.45c-0.7697 0.3327-2.587-1.305-2.951-0.3008-0.4461 0.4756-0.6543 2.431-0.6798 2.286-0.5078 1.054-0.5858 2.823-0.3286 4.036 0.4321 1.056-0.6478 3.208 1.02 3.126 1.46 0.2157 2.892 0.6307 4.29 1.096 1.755 0.5908 3.215 1.801 4.993 2.332 1.254 0.3959 2.483 0.8749 3.754 1.221 1.152 0.1243 2.272 0.4112 3.336 0.8753 0.9388 0.2626 1.576 0.4751 2.514 0.63 1.051 0.2701 2.121 0.3708 3.115 0.7628 0.8986 0.1368 1.994 0.6637 2.731 0.05685 0.6041-0.8347 1.207-1.536 1.545-2.528 0.2649-1.172 0.5499-2.331 0.7561-3.5 0.08251-0.7191-0.08729-1.463 0.333-1.994 0.1847-1.309-0.6558-2.401-1.802-2.752-1.288-0.7679-2.855-0.4618-4.232-0.9626-2.277-0.6798-4.56-1.412-6.939-1.624-1.617-0.2985-3.16-0.9005-4.8-1.085-0.5559-0.09828 0.761 0.07146-0.07413-0.07494-1.223-0.1899-2.425-0.4577-3.605-0.8466-1.003-0.3137-2.012-0.6422-2.974-0.755zm1.951 2.535 1.941 0.6279c-0.2747 1.182-0.5491 2.364-0.8232 3.546l-1.941-0.6274c0.2742-1.182 0.5486-2.364 0.8232-3.547zm14.93 4.827 1.941 0.6274c-0.2741 1.182-0.5485 2.364-0.8232 3.546l-1.941-0.6274c0.2747-1.182 0.5491-2.364 0.8232-3.546z" fill="#ffd42a" style="paint-order:markers stroke fill"/>
   <path d="m56.82 57.12c-0.1289 0.5554-0.7572 0.8383-1.401 0.6304l-25.26-8.165c-0.6434-0.2079-1.062-0.829-0.9329-1.384l1.814-7.813c0.6317 0.5392 0.9309 0.5623 3.905 1.523l-0.4116 1.773c-0.07752 0.3339 0.1731 0.7057 0.5597 0.8307l3.342 1.08c0.3866 0.1249 0.7628-0.04433 0.8404-0.3782l0.4116-1.773 10.19 3.294-0.4116 1.773c-0.07751 0.3339 0.1731 0.7057 0.5597 0.8307l3.342 1.08c0.3866 0.1249 0.7628-0.04433 0.8404-0.3782l0.4116-1.773c2.979 0.9628 3.243 1.121 4.018 1.037z" fill="#520" style="paint-order:markers stroke fill"/>
   <path d="m43.16 31.09c-0.1635 0.0064-0.2995 0.1012-0.3343 0.2511l-0.5607 2.416-7.855-2.538c-0.6434-0.2079-1.272 0.07492-1.401 0.6305l-1.523 6.561c-0.1289 0.5555 0.2894 1.177 0.9328 1.384l2.795 0.9028 0.4113-1.773c0.07751-0.3339 0.4537-0.5032 0.8403-0.3783l3.342 1.08c0.3866 0.1249 0.6372 0.4965 0.5597 0.8304l-0.4119 1.773 10.19 3.294 0.4113-1.773c0.07751-0.3339 0.4542-0.5032 0.8408-0.3783l3.341 1.08c0.3866 0.1249 0.6372 0.4971 0.5597 0.831l-0.4119 1.773 2.795 0.9028c0.6434 0.2079 1.272-0.07492 1.401-0.6305l1.523-6.561c0.129-0.5555-0.2894-1.176-0.9328-1.384l-7.982-2.58 0.5612-2.417c0.04642-0.2-0.1043-0.4233-0.3359-0.4982l-8.587-2.775c-0.05789-0.01871-0.1155-0.02643-0.17-0.02429zm0.8723 1.07c0.08056 5.25e-4 0.1645 0.01401 0.2491 0.04134l6.347 2.051c0.3866 0.1249 0.6377 0.4966 0.5602 0.8304l-0.3364 1.45-1.4-0.4527 0.1964-0.8454-4.947-1.598-0.1964 0.8449-1.4-0.4527 0.3364-1.449c0.06054-0.2608 0.3035-0.4215 0.5912-0.4196z" fill="#7b4322" style="paint-order:markers stroke fill"/>
  </g>
 </g>
 <g transform="matrix(.6849 0 0 .7327 26.61 16.02)">
  <path d="m33.21 30.28c-2.305-0.5988-4.007-2.418-5.927-3.72-4.083-3.335-7.513-7.506-9.709-12.32-1.246-2.481-2.476-5.002-4.138-7.225-1.47-0.582-1.331 2.159-1.855 3.087-0.9343 3.302-0.9397 6.834-0.2314 10.18 0.4153 2.57 1.112 2.293 3.273 3.781 20.1 9.214 5.27 4.037 8.05 4.883 8.986 2.735 4.706 3.262 5.122 3.314 3.005 0.3777 5.541 3.162 5.744 3.814-6.167-8.62-18.44-11.02-20.07-12.21-1.074-1.3-1.704 0.04783-0.4771 2.148 0.9136 3.73 1.87 5.716 5.15 7.815 1.167 0.4159 17.79 4.963 11.58 7.63 3.674-3.759-8.276-5.215-10.38-6.527-1.191-0.7912-7.22-6.688-3.983 0.8756 6.245 4.662-0.4126 1.425 0.6216 3.151 4.531 3.808 4.664 2.866 7.136 3.997 1.778 0.6862 3.384 1.82 5.2 2.39-0.7399-1.332-3.122-1.203-3.904 0.1836-0.679 1.932 1.846 3.045 3.297 3.616 3.196 0.9487 6.785-0.572 8.773-3.134 1.195-1.755 2.072-3.707 2.132-5.873 0.1383-1.864-0.2525-3.803-0.91-5.552-0.6857-1.959 0.7057-0.8352 0.5482-2.948-0.3563-2.201-6.209-2.608-6.246-4.835z" fill="#a3c6cb" stroke="#47696c" stroke-linecap="round" stroke-linejoin="round" stroke-opacity=".07289" stroke-width=".994" style="paint-order:normal"/>
  <path d="m62.59 39.75c2.232 0.832 4.67 0.3181 6.989 0.3528 5.257-0.389 10.46-1.838 15.02-4.519 2.444-1.318 4.898-2.677 7.534-3.544 1.538 0.3664-0.1485 2.532-0.252 3.593-1.129 3.241-3.151 6.137-5.649 8.469-1.814 1.867-2.227 1.24-4.85 1.219-21.75-3.984-6.633 0.2832-9.395-0.6186-8.929-2.915-5.726-0.02812-6.097-0.2241-2.678-1.415-6.352-0.5887-6.893-0.1714 9.997-3.522 21.43 1.548 23.44 1.51 1.626-0.4487 1.368 1.017-0.8414 2.033-2.888 2.531-4.811 3.609-8.701 3.446-1.194-0.3287-17.42-6.141-13.86-0.3907-0.8532-5.186 9.771 0.4766 12.25 0.6081 1.43 0.03531 9.751-1.336 2.76 3.002-7.789 0.236-0.4798 1.404-2.317 2.224-5.895 0.5194-5.464-0.328-8.138-0.8199-1.85-0.4582-3.816-0.4509-5.63-1.025 1.37-0.6669 3.247 0.8055 3.093 2.39-0.5522 1.972-3.259 1.435-4.775 1.071-3.162-1.056-5.229-4.361-5.388-7.6 0.02789-2.123 0.4301-4.225 1.622-6.034 0.956-1.606 2.388-2.97 3.931-4.026 1.685-1.211-0.09885-1.089 1.242-2.729 1.554-1.598 6.581 1.426 7.889-0.3773z" fill="#a3c6cb" stroke="#47696c" stroke-linecap="round" stroke-linejoin="round" stroke-opacity=".07289" stroke-width=".994" style="paint-order:normal"/>
  <g stroke="#fdcc4e" stroke-width="3.964" style="paint-order:markers stroke fill">
   <path d="m34.94 37.45c-0.7697 0.3327-2.587-1.305-2.951-0.3008-0.4461 0.4756-0.6543 2.431-0.6798 2.286-0.5078 1.054-0.5858 2.823-0.3286 4.036 0.4321 1.056-0.6478 3.208 1.02 3.126 1.46 0.2157 2.892 0.6307 4.29 1.096 1.755 0.5908 3.215 1.801 4.993 2.332 1.254 0.3959 2.483 0.8749 3.754 1.221 1.152 0.1243 2.272 0.4112 3.336 0.8753 0.9388 0.2626 1.576 0.4751 2.514 0.63 1.051 0.2701 2.121 0.3708 3.115 0.7628 0.8986 0.1368 1.994 0.6637 2.731 0.05685 0.6041-0.8347 1.207-1.536 1.545-2.528 0.2649-1.172 0.5499-2.331 0.7561-3.5 0.08251-0.7191-0.08729-1.463 0.333-1.994 0.1847-1.309-0.6558-2.401-1.802-2.752-1.288-0.7679-2.855-0.4618-4.232-0.9626-2.277-0.6798-4.56-1.412-6.939-1.624-1.617-0.2985-3.16-0.9005-4.8-1.085-0.5559-0.09828 0.761 0.07146-0.07413-0.07494-1.223-0.1899-2.425-0.4577-3.605-0.8466-1.003-0.3137-2.012-0.6422-2.974-0.755zm1.951 2.535 1.941 0.6279c-0.2747 1.182-0.5491 2.364-0.8232 3.546l-1.941-0.6274c0.2742-1.182 0.5486-2.364 0.8232-3.547zm14.93 4.827 1.941 0.6274c-0.2741 1.182-0.5485 2.364-0.8232 3.546l-1.941-0.6274c0.2747-1.182 0.5491-2.364 0.8232-3.546z" fill="#ffd42a" style="paint-order:markers stroke fill"/>
   <path d="m56.82 57.12c-0.1289 0.5554-0.7572 0.8383-1.401 0.6304l-25.26-8.165c-0.6434-0.2079-1.062-0.829-0.9329-1.384l1.814-7.813c0.6317 0.5392 0.9309 0.5623 3.905 1.523l-0.4116 1.773c-0.07752 0.3339 0.1731 0.7057 0.5597 0.8307l3.342 1.08c0.3866 0.1249 0.7628-0.04433 0.8404-0.3782l0.4116-1.773 10.19 3.294-0.4116 1.773c-0.07751 0.3339 0.1731 0.7057 0.5597 0.8307l3.342 1.08c0.3866 0.1249 0.7628-0.04433 0.8404-0.3782l0.4116-1.773c2.979 0.9628 3.243 1.121 4.018 1.037z" fill="#520" style="paint-order:markers stroke fill"/>
   <path d="m43.16 31.09c-0.1635 0.0064-0.2995 0.1012-0.3343 0.2511l-0.5607 2.416-7.855-2.538c-0.6434-0.2079-1.272 0.07492-1.401 0.6305l-1.523 6.561c-0.1289 0.5555 0.2894 1.177 0.9328 1.384l2.795 0.9028 0.4113-1.773c0.07751-0.3339 0.4537-0.5032 0.8403-0.3783l3.342 1.08c0.3866 0.1249 0.6372 0.4965 0.5597 0.8304l-0.4119 1.773 10.19 3.294 0.4113-1.773c0.07751-0.3339 0.4542-0.5032 0.8408-0.3783l3.341 1.08c0.3866 0.1249 0.6372 0.4971 0.5597 0.831l-0.4119 1.773 2.795 0.9028c0.6434 0.2079 1.272-0.07492 1.401-0.6305l1.523-6.561c0.129-0.5555-0.2894-1.176-0.9328-1.384l-7.982-2.58 0.5612-2.417c0.04642-0.2-0.1043-0.4233-0.3359-0.4982l-8.587-2.775c-0.05789-0.01871-0.1155-0.02643-0.17-0.02429zm0.8723 1.07c0.08056 5.25e-4 0.1645 0.01401 0.2491 0.04134l6.347 2.051c0.3866 0.1249 0.6377 0.4966 0.5602 0.8304l-0.3364 1.45-1.4-0.4527 0.1964-0.8454-4.947-1.598-0.1964 0.8449-1.4-0.4527 0.3364-1.449c0.06054-0.2608 0.3035-0.4215 0.5912-0.4196z" fill="#7b4322" style="paint-order:markers stroke fill"/>
  </g>
 </g>
 <g stroke="#595986" stroke-linecap="round">
  <g stroke-linejoin="bevel">
   <path d="m56.57 69.3c-1.225 0.1324-2.115-0.74-2.734-1.427-0.4824-0.642-0.8406-1.316-1.226-1.986-0.4672-0.7461-0.8934-1.502-1.159-2.291-0.5425-1.415-0.5013-2.886 0.01699-4.223 0.1064-0.5442 0.3855-1.05 0.6453-1.553 0.6087-0.2095 1.6-0.2541 2.26-0.05978 0.4215 0.5784 0.2785 1.284 0.1872 2.05-0.05941 2.35 0.9165 2.697 1.792 3.885 1.181 1.149 2.042 1.123 2.291 0.3198-0.4469-0.8488-0.3904-1.603-0.4523-2.508 0.2285-0.9596 0.3273-1.47 0.5561-1.356 0.9452 0.4684 1.128 0.5386 1.213 1.254 0.5828 4.905 2.468 2.311 1.399 3.328 0.08527 1.073-0.2079 0.838-0.992 1.647-0.7123 0.9326-1.537 1.819-2.483 2.625l-0.09069 0.0622-0.09488 0.05926" fill="#cba26e" fill-opacity=".3216" stroke-opacity=".5519" stroke-width=".458" style="paint-order:stroke markers fill"/>
   <path d="m92.45 102.6c1.272 0.2653 1.93 1.231 2.367 1.967 0.3107 0.6586 0.4874 1.305 0.6923 1.957 0.2668 0.7372 0.4897 1.47 0.5417 2.18 0.1596 1.294-0.2854 2.456-1.175 3.367-0.2564 0.4023-0.6768 0.7218-1.077 1.045-0.6715-0.0171-1.683-0.2816-2.296-0.6366-0.2666-0.5895 0.06179-1.083-0.1501-1.675 0.01187-0.6113-0.1065-1.247-0.4386-1.906-0.1343-0.5845-0.4192-1.186-0.7329-1.779-0.2667-0.3611-0.7997-1.492-1.272-0.9264-0.3657 0.6024-0.9046 1.294-0.2312 2.14 0.2289 0.8495-1.733-0.2406-2.086-0.7008-0.7459-0.644-1.224-1.408-0.976-2.021 0.2081-0.8827 1.191-1.419 2.203-1.828 0.9742-0.5289 2.049-0.9868 3.224-1.344l0.1085-0.0222 0.1119-0.0185" fill="#cba26e" fill-opacity=".3216" stroke-opacity=".5519" stroke-width=".5292" style="paint-order:stroke markers fill"/>
   <path d="m67.59 79.39s1.658 2.446 3.411 2.215c1.753-0.2307 3.174-1.061 3.647-1.569 0.4737-0.5076 0.4737-0.5076 0.4737-0.5076m-7.637-0.8596s1.658 2.446 3.411 2.215c1.753-0.2307 3.174-1.061 3.647-1.569 0.4737-0.5076 0.4737-0.5076 0.4737-0.5076" fill="none" stroke-width=".5258" style="paint-order:normal"/>
  </g>
  <ellipse cx="71.34" cy="72.94" rx="5.632" ry="7.558" fill="#cba26e" fill-opacity=".3216" stroke-linejoin="round" stroke-opacity=".5477" stroke-width=".5292" style="paint-order:stroke markers fill"/>
 </g>
 <g>
  <path d="m63.29 63.29-11.29 5.515s12.34 16.54 7.091 27.58c-5.252 11.03-8.929 12.87-8.929 12.87s-7.091 6.303-4.464 16.55c2.626 10.24 2.626 9.455 2.626 9.455l14.44-2.889-5.515-13.13s-3.07-3.161 5.942-8.962c2.006-1.291 3.71-2.446 5.157-3.487 2.301 1.5 4.891 3.911 5.709 7.458 1.576 6.828-2.364 11.82-2.364 11.82l16.02 1.313s1.05-3.939-1.051-9.979c-0.7813-2.246-5.253-6.566-8.404-12.08-3.057-5.35-1.323-16.78 2.632-19.79 1.999 1.054 4.093 1.829 6.035 4.03 3.939 4.465-1.051 13.92-1.051 13.92l10.51 2.889s1.838-14.97-3.152-20.48c-4.213-4.657-11.24-6.505-18.38-6.968-0.2669 2.073-4.156 3.653-3.404 6.452 0.4823 1.024-0.11 1.543-0.9131 2.416-0.6963 1.751-1.284 3.518-1.963 5.272-0.2427 0.7156-0.1479-0.3613-0.1225-0.5659-0.05004-0.5627-3e-3 -1.127 0.09302-1.688-0.01337-0.8445 0.2757-1.672 0.4579-2.505 0.2058-0.635-0.05109-1.276 0.07441-1.916 0.5001-2.763-0.7198-4.854-1.396-7.714-0.903-0.07798-1.656-0.1874-2.285-0.3157-2.047-2.151-2.907-4.501-2.817-6.358 0.2443-5.037 0.7137-8.696 0.7137-8.696z" fill="#595986" style="paint-order:stroke fill markers"/>
  <path d="m47.86 135.2-7.439 6.291 21.99-9.011s-5.498-4.761-10.19-1.19c-4.69 3.57-4.366 3.91-4.366 3.91z" fill="#303030" stroke="#20273b" stroke-linecap="round" stroke-linejoin="bevel" stroke-width=".5384" style="paint-order:normal"/>
  <path d="m87.32 127.3 8.29 5.769-23.56-7.144s5.196-5.464 10.38-2.236c5.187 3.228 4.887 3.611 4.887 3.611z" fill="#303030" stroke="#20273b" stroke-linecap="round" stroke-linejoin="bevel" stroke-width=".5583" style="paint-order:normal"/>
 </g>
 <path d="m71.66 65.56-1.697 14 0.01373 0.3958-0.3142 0.8603c0.4009 0.1827 0.1268 1.305 0.5614 1.249 1.587-0.2025 3.489-0.7108 5.112-2.312l-1.105-0.5328c0.6688-0.4873 1.382-0.7768 1.864-1.443 0.8355-1.155 1.218-2.871 1.222-4.601 0-3.81-2.79-8.448-5.656-7.621zm2.899 13.47c-0.2753 2.073-4.618 3.531-3.511 6.452 0.4975 1.024-0.1962 1.218-0.9419 2.416-0.3468 0.8455-2.013 4.473-2.33 5.323l0.6472 11.54c0.1031-1.132-0.06108 2.031 0.09702 2.079 2.373 1.5 4.376 3.97 5.221 7.517 1.625 6.828-2.438 11.82-2.438 11.82l0.08477 7e-3 -0.1189 0.1607 2.05 0.186 22.66 6.66-8.373-5.648-0.0086-0.0708 0.2335 0.0186s1.084-3.939-1.084-9.979c-0.403-1.123-2.729-4.515-3.583-5.282 0 0-4.495-6.346-4.761-6.961-2.344-5.424-1.69-16.62 2.389-19.62 2.063 1.054 4.458 1.635 6.226 4.029 3.657 4.953-1.206 13.92-1.206 13.92l1.734 0.43-0.207-0.473c-0.8946 0.3882-1.854 1.22-2.041 1.991-0.2554 0.6132 0.6849 1.865 1.454 2.509 0.3645 0.4602 2.388 1.266 2.152 0.416-0.6946-0.846-0.09827-1.578 0.279-2.18 0.4868-0.5654 0.6301 0.9722 0.9052 1.333 0.3237 0.593 0.4547 1.479 0.5932 2.064 0.3426 0.6598 0.4649 1.295 0.4526 1.906 0.2186 0.5926 0.1236 0.7199 0.3986 1.309 0.6318 0.355 2.164 0.4569 2.856 0.474 0.4125-0.3228 0.5617-0.8053 0.8262-1.208 0.9173-0.9104 1.376-2.073 1.212-3.367-0.0537-0.7105-0.284-1.443-0.5592-2.18-0.03543-0.1093-0.07149-0.2181-0.1061-0.3271l0.01972-0.0734 0.9894 0.2641s1.896-14.97-3.251-20.48c-4.346-4.657-15.21-7.115-18.63-7.456zm-15.76 54.88s4.193-1.095 2.207-4.571c-3.124-5.467-4.568-10.93-4.814-11.71-0.6386-2.031 3.739-6.527 6.551-7.979 5.211-2.691 2.258-0.9418 5.772-3.757l-0.05023 0.8394s-9.549 6.253-10.24 7.754c-0.6945 1.507-2.252 2.468-0.6561 5.33s5.173 12.6 5.173 12.6z" fill-opacity=".6424" opacity=".3987" style="mix-blend-mode:overlay;paint-order:normal"/>
</svg>
