<?xml version="1.0" encoding="UTF-8"?>
<svg width="127mm" height="143.9mm" version="1.1" viewBox="0 0 127 143.9" xmlns="http://www.w3.org/2000/svg" xmlns:xlink="http://www.w3.org/1999/xlink">
 <defs>
  <linearGradient id="linearGradient13119" x1="16" x2="109.7" y1="71.88" y2="71.88" gradientUnits="userSpaceOnUse">
   <stop stop-color="#f0d6ab" offset="0"/>
   <stop stop-color="#f0d6ab" stop-opacity=".7879" offset=".7355"/>
   <stop stop-color="#f0d6ab" stop-opacity="0" offset="1"/>
  </linearGradient>
 </defs>
 <g transform="translate(-4.233)">
  <path d="m16.19 9.822-0.03916 124.7" fill="#cba26e" fill-opacity=".3216" stroke="#c9c7be" stroke-linecap="round" stroke-linejoin="bevel" stroke-width="3.513" style="paint-order:normal"/>
  <rect x="16.17" y="8.749" width="93.55" height="127.5" fill="#f6e7cb" style="paint-order:markers stroke fill"/>
  <path d="m83.5 10.89c-6.073-0.01467-12.14 0.3374-17.68 0.4232-19.33 2.191-36.98 12.72-49.82 25.35h0.005685v70.15c8.148 13.85 22.56 26.91 41.66 26.01 17.48-0.2258 38.32-0.8335 52.07-11.01v-30.34c-2.628-0.5359-5.501-0.273-8.402 1.122-14.19 8.265-28.92 17.84-46.9 17.28-15.72 1.97-32.74-13.64-24.17-26.65 0.1355-0.116 0.2743-0.2273 0.417-0.3338 23.24-2.003 47.03-5.804 67.93-15.15 4.078-2.365 7.868-5.429 11.12-8.945v-42.9c-7.494-4.086-16.87-4.985-26.24-5.008zm-0.6981 12.17c10.76 0.5755 13.38 12.31 8.24 16.37-5.91 4.668-17.11 7.216-28.68 9.322-9.711 1.768-24.83 3.015-28.13 0.1447-0.99-0.8614 16.05-14.31 26.33-19.3 6.696-3.249 10.2-6.175 22.24-6.54zm-44.39 57.53-7.392 2.063c2.085-1.405 4.815-1.916 7.392-2.063z" fill="url(#linearGradient13119)" opacity=".6631" style="mix-blend-mode:multiply;paint-order:stroke markers fill"/>
  <path d="m121.1 9.66-104.9-0.04638m104.7 125.6-104.9-0.04638m105.1-63.98-104.9-0.0464" fill="#cba26e" fill-opacity=".3216" stroke="#c9c7be" stroke-linecap="round" stroke-linejoin="bevel" stroke-width="3.506" style="paint-order:normal"/>
  <g transform="matrix(1.097 0 0 1.298 -3.571 -28.63)">
   <g transform="translate(-3.247 -9.815)">
    <path d="m73.83 109.4c0.4975 4.702 1.754 9.11 2.295 13.8 0.1673 1.328 0.6314 3.442 0.4192 3.427-0.1728 0.0353-2.15 0.1315-2.298-0.0288-0.05708-0.1731-0.1217-3.521-0.1951-5.221 0.05521-2.021-0.1435-4.014-0.1715-6.025-0.883-2.682-2.035 1.522-1.95 3.048-0.3569 2.029-0.6342 3.8-1.035 6.021 0.1268 2.458 0.1531 2.123-0.3052 2.372-1.999 1.1-6.557 3-8.538 4.324-1.591 0.3389 0.5622-2.897 0.995-3.618 2.2-3.436 4.091-7.5 4.949-12.22 0.7276-2.865 1.597-5.669 2.033-8.685 0.0319-0.082 0.06379-0.1646 0.09569-0.2464" style="paint-order:markers stroke fill"/>
    <path d="m82.4 110.5c-0.5325 4.548-1.363 8.816-1.942 13.35-0.1791 1.285-0.5998 2.852-0.4022 2.802 0.4085 0.0166 2.065 0.0553 2.136-0.0305 0.07569-0.0317 0.4143-3.026 0.4863-4.534-0.05909-1.954-0.3609-3.887-0.3309-5.832 0.9451-2.594 2.179 1.472 2.087 2.948 0.382 1.962 0.5883 3.344 0.8362 5.569 0.07545 2.403-0.3239 2.106 0.8971 2.625 2.14 1.238 6.719 2.826 8.839 4.107 1.703 0.3278-0.6018-2.802-1.065-3.5-2.354-3.323-4.379-7.254-5.297-11.82-0.7788-2.772-1.709-5.483-2.176-8.401-0.03414-0.0793-0.06828-0.1592-0.1024-0.2384" style="paint-order:markers stroke fill"/>
   </g>
   <path transform="matrix(.9119 0 0 .7702 3.256 22.05)" d="m103.4 39.55c-0.5968 0.1986-0.2564 1.353-0.7868 0.8566-0.4456-0.4711-2.078-1.751-2.684-2.662-1.595-4.059-2.326-3.386-6.932-4.606 0.9487-1.153 4.069-2.067 6.384-0.8778 2.01 0.7483 1.394 1.436 2.562 2.569 0.2794 0.2256 1.044 1.034 1.186 0.1893 0.142-0.8452-1.113-2.396-1.113-2.396 0.7766 0.3987 1.21 0.6933 1.473 0.8995 0.5966 0.3109 0.6571 0.4612 0.8766 1.082 0.37 0.8428 0.2833 1.645 0.1211 2.345-0.0874 0.7926-0.2474 1.557-0.4947 2.268l-0.0283 0.05616-0.0314 0.0541" fill="#e8d1ad" stroke="#595986" stroke-linecap="round" stroke-linejoin="bevel" stroke-opacity=".5529" stroke-width=".37" style="paint-order:stroke markers fill"/>
   <path d="m68.22 59.31 7.042 3.854m5.416-4.312-7.792 2.888" fill="none" stroke="#595986" stroke-dasharray="1.69224, 0.564079" stroke-linecap="round" stroke-linejoin="bevel" stroke-width=".5641" style="paint-order:markers stroke fill"/>
   <g stroke="#434368">
    <path d="m67.63 59.38c3.225-0.9713 6.669-1.307 9.899-0.187-2.948 1.804-6.894 1.17-9.899 0.187z" fill="#6f6f9e" stroke-opacity=".817" stroke-width=".2449" style="paint-order:normal"/>
    <path d="m97.67 46.7 0.831 3.232-4.285 2.379s-0.7295-0.1603 2.609 4.684c0.924 1.341 2.579-6.681 2.455 2.947-0.02914 2.26-3.499 4.286-4.704 4.148-1.779-0.2035-4.274-2.086-6.915-2.999-0.7489 0.4232-3.395 2.352-4.888-0.9169-0.6818-1.493-3.081-2.722-4.043-0.2274-0.9616 2.495-3.957 13.3-3.947 13.96 0.05499 0.5545 2.288 12.86 2.462 14.6l5.731-0.175s1.369 0.3092 1.301-0.1877c1.417-0.08128 4.748 2.643 1.042-2.524-2.646-4.404-9.592-13.91-1.719-19.1 1.851-0.9637-0.7032 3.178 1.399 1.623 3.938-2.912 12.94 2.309 14.86-0.6245 2.278-3.482 1.54-12.03 1.347-14.2-0.4393-4.932-3.538-6.622-3.538-6.622zm-31.8 11.93c-1.706 0.05267-2.666 2.058-2.191 2.822 1.807 2.911-3.965 3.012-4.487 4.96-1.473 6.743 3.409 15.16 2.103 17.38-1.306 2.22-4.44-1.044-4.44-1.044s1.045 1.828 1.698 2.22l-0.1307 2.482 4.798-0.1454c-0.02419-0.04248-0.0419-0.1029-0.05013-0.1882-2.655-4.634 4.001-10.04 3.671-12.5-0.4798-2.312-1.072-2.145-2.255-3.307-1.563-1.536-0.8692-7.737 0.1638-7.499 1.39 0.3199 3.621 4.884 4.971 10.56-0.2659 2.154-6.24 12.22-6.354 12.81-0.0196 0.03477 0.04673 0.05957 0.1819 0.07561-0.01526 0.01389-0.03097 0.03054-0.04599 0.04336l10.97 1.108c-1.074-0.527-1.487-0.6031-0.8682-0.8032 0.1573-1.16 0.8482-12.86 0.5204-13.37 0.09914-0.5604-3.304-8.2-4.231-11.5-0.927-3.304-0.2462-3.519-2.3-3.83-0.1088-0.04395-1.226-0.227-1.369-0.2506-0.1201-0.01479-0.2372-0.0199-0.3509-0.01639zm4.641 3.435 4.076 10.35c0.1406 0.1918 1.827-7.718 1.827-7.718s-0.09368-1.438-1.921 0.1438c-1.827 1.582-1.124-1.102-1.124-1.102z" fill="#595986" stroke-linecap="round" stroke-linejoin="bevel" stroke-opacity=".8723" stroke-width=".2217" style="paint-order:normal"/>
    <path d="m72.97 59.25c-3.625-0.4487 0.3754 0.7226-0.209 0.5245-0.4176-0.06287-1.303-0.4429-1.308-0.1805-0.01041 0.4847-0.992 0.2915-1.708 0.4091 0.6341 0.3492 1.562 0.5325 1.998 1.212 0.4569 0.433 1.336 0.05373 1.778 0.5579 0.911-0.2679 1.477-0.4367 1.81-0.4399 0.531-0.4617 1.38-0.5009 1.983-0.8717 0.6245-0.3188 1.128-0.7382 1.715-1.105 0.6098-0.7586 0.4809-0.6165 0.3261-0.9006-0.2285-0.4194-1.46-0.467-1.46-0.467-0.4703 0.1042-0.5518 0.5295-0.9328 0.6558-0.782 0.2592-1.515 0.4952-2.306 0.6147-0.4004 0.06053-0.8561 0.094-1.217 0.04929z" fill="#434368" stroke-width=".299" style="paint-order:normal"/>
   </g>
   <g transform="matrix(1.252 0 0 .4251 -18.32 33.19)">
    <path d="m68.9 53.43c0.04031-0.5692 0.05836-1.421 0.09506-2.004 0.0071-0.1129 0.0047-0.2758 0.01216-0.3862 0.01332-0.1976 0.03468-0.3224 0.04863-0.515 0.09315-1.286 0.1577-4.641 0.04863-0.7725-0.0056 0.1988 0.01788-0.439 0.02432-0.6438 0.0013-0.04069 6.99e-4 -0.1711 0-0.1288-0.031 1.97-0.1256 3.365-0.1945 5.15-0.01602 0.4147-0.02076 0.8715-0.03647 1.288-0.02356 0.6237-0.06505 1.165-0.08511 1.803-0.0018 0.05755 0.0081-0.08586 0.01216-0.1288 0.02837-0.3004 0.05529-0.6171 0.08511-0.9013 0.0513-0.4889 0.1093-0.8995 0.1581-1.416 0.07865-0.8329 0.1155-1.922 0.1824-2.833 2e-3 -0.02708 0.08511-1.118 0.08511-1.159 0-0.0429-0.0093 0.03033-0.01216 0-0.02006-0.2124 0.0031-0.6026 0-0.9013l-0.03039-2.961c-0.0045-0.4425 0.0443-1.876 0.03039-2.318-0.0018-0.05752-0.01077-0.0699-0.01216-0.1288-0.0029-0.1249 0.0029-0.2613 0-0.3863-0.0042-0.1766-0.02694-0.2348-0.03647-0.3863-0.0022-0.03575 0.0036-0.1096 0-0.1288-0.01087-0.05752-0.0256 0.05762-0.03647 0-0.01763-0.09337-0.02542-0.2575-0.04863-0.2575l-0.07295 0.3863c-0.02962 1.255 0.0068-0.3474-0.03647 2.06-0.02959 1.645-0.01636 0.4306-0.08833 2.094-0.07574 1.75-0.14 3.677-0.2432 5.279-0.02749 0.427-0.07021 1.185-0.09404 1.512-0.02384 0.327-0.02406 0.4137-0.04863 0.7725-0.02458 0.3588 0.433-3.173 0.4362-2.964" fill="#303030" stroke="#303030" stroke-width=".2261" style="paint-order:markers fill stroke"/>
    <ellipse cx="73.4" cy="50.67" rx="4.487" ry="10.62" fill="#e8d1ad" stroke="#595986" stroke-linecap="round" stroke-linejoin="round" stroke-opacity=".549" stroke-width=".4433" style="paint-order:stroke markers fill"/>
    <path d="m78.65 44.5c-0.9644 18.26-0.6537 15.7-1.364 1.304-0.3349-4.19 0.04172 4.055-0.4697-0.0484-0.4463-0.6054 1.828-7.614 2.018-6.138 0.4865 2.975-0.8826 9.204-1.221 7.042-0.5293-0.8266 0.2267 5.755-1.307-3.694-0.1848-1.139-0.6478-1.147-0.9577-0.8151-0.4201 0.4498-0.4169 2.946-0.57 3.105-0.0536-1.599-1.553-3.477-2.508-2.437-0.09674 0.4177-0.3382 0.3869-0.5804 1.097-0.1471 0.4313-0.5466 3.404-0.6123 3.301-0.1935 0.1429-0.2988-1.447-0.5945-1.664-0.4478-1.469-0.7283 1.792-0.8858 2.95-0.07197 4.914-0.3049-5.685 0.0066-0.9384-1.171-2.024-0.9436 4.861-1.188 1.33-0.1801-8.266-0.09345 1.59-0.1471-0.3875 0.1966-4.37-1.077 0.7293-1.433 2.025-0.8975-3.233 0.1629-7.083 0.9743-9.816 1.014-2.092 1.053-7.774 2.889-6.27 1.358 0.889 3.14 3.39 4.115-0.1969l1.192-0.2258 1.045 1.678 0.3423 1.038c1.38 1.636 1.155 1.59 1.429 2.978 0.1362 0.6895 0.0368 2.303 0.0368 2.303" fill="#303030" style="paint-order:markers stroke fill"/>
   </g>
   <path transform="matrix(.9119 0 0 .7702 3.256 22.05)" d="m79.28 32.62c-0.3929 1.766-2.56 7.928-0.4644 9.15 3.734 2.178-0.3094 9.347 1.276 8.272l-0.9625 1.73c-1.326 4.687-0.7265 14.7-0.7163 15.46 0.06092 0.7154 2.535 16.59 2.727 18.83l6.351-0.2258s1.517 0.3993 1.441-0.2418c1.57-0.1049 5.26 3.41 1.154-3.256-2.931-5.682-10.63-17.94-1.905-24.64 2.051-1.243-0.7788 4.1 1.551 2.094 4.363-3.756 14.34 2.979 16.47-0.8056 2.524-4.492 1.848-19.3 0.6852-21.84-0.4312-0.9436-0.7321-1.734-1.032-2.305-0.9412-1.792-1.438-2.014-2.329-2.847-0.01 0.07502 0.2938 1.12 0.3522 1.553-0.4545-0.126-1.319-1.059-1.829-0.9188 0.9373 1.851 1.548 3.568-0.1607 1.815-0.9891-1.124-0.4606-1.741-3.284-2.741-1.472-0.2306-2.93-0.1433-4.458 0.3969-0.4791 0.3666-1.593 0.6374-1.114 1.205 2.375-1.832 5.73-0.509 7.573 1.151 0.514 0.898 2.158 1.758 3.343 2.155-1.194 0.5211-3.122 2.039-4.001 2.758 0 0-0.8083-0.207 2.89 6.043 1.024 1.73 2.858-8.619 2.72 3.802-0.0322 2.916-3.877 5.529-5.212 5.351-1.971-0.2625-4.735-2.691-7.662-3.868-0.8298 0.546-4.286 2.641-5.939-1.576-0.6241-1.591-1.652-3.573-2.902-2.182l-1.058 1.329-4.813 7.631c0.457-0.6781 6.927-1.386 7.325-3.95 0.05183-0.3333 2.091 1.324 2.814-0.2456 0.4329-0.9395-0.1879-4.187-2.507-4.504-5.066-0.6931-1.428-3.403-1.387-5.445 0.04619-2.251 1.127-4.758 1.056-5.426-0.1956-1.84-2.496-1.916-2.496-1.916z" fill="#303030" opacity=".399" style="mix-blend-mode:overlay;paint-order:stroke markers fill"/>
  </g>
  <g>
   <path d="m97.52 83.82c-1.697 8.37e-4 -3.353 0.07796-4.912 0.1934-2e-5 0.0015 1e-5 0.0024 0 0.0039h-59.28c-4-0.2704-7.646-0.115-12 0.8069-1.334 0.8367-1.389 2.258-0.8187 2.97 1.124 1.126 2.26 2.307 3.22 3.661 3.333 4.287 5.446 11.99 1.828 15.67-0.5567 1.491-2.233 1.477-2.758 2.922 0.2032 3.918 0.1287 11.56 0.4238 15.47l8.806-10.6h61.47l8.754 10.47c0.2951-3.913 0.2206-11.55 0.4238-15.47-0.5256-1.445-2.201-1.431-2.758-2.922-4.32-4.848-1.073-11.69 1.828-15.67 0.9608-1.355 3.141-2.405 4.265-3.531 0.5702-0.7121 1.422-2.341 0.0885-3.177-2.81-0.5952-5.755-0.8049-8.584-0.8035z" fill="#502d16" style="paint-order:markers stroke fill"/>
   <g transform="matrix(.9694 0 0 1 .6207 0)">
    <path d="m98.19 90.7c-5.146 0.2522-10.35 0.05886-15.45 0.751-2.567 0.4876-5.174 0.7755-7.797 0.8979-1.804 0.2743-3.968 0.0083-5.468 0.9569 0.2411 2.105 0.2033 4.296 0.3912 6.437 0.1571 1.211-0.5177 3.475 1.835 2.661 3.014-4e-3 6.046 0.6016 9.083 0.3241 3.227-0.1335 6.452-0.1076 9.675-0.2358 0.7292 0.0546 3.513 0.2342 1.227 0.4066-3.435 0.5154-6.936 0.7101-10.42 0.6658-2.742-0.1403-5.508-0.2516-8.241 0.1128-1.835 0.5383-4.299-0.453-5.77 0.4584-0.205 1.594 0.3314 3.214 0.1196 4.825-0.8288 2.553 3.194 0.8893 4.728 0.9164 3.196-0.3915 6.447-0.6485 9.673-0.5161 2.242 0.2059 4.485 0.4552 6.736 0.6378 1.769 0.3088 3.596 0.2319 5.356 0.6073m-64.51-19.53c4.764 0.2252 9.565 0.08811 14.3 0.6759 1.649 0.3639 3.34 0.5278 5.015 0.7534 2.406 0.1488 4.841 0.242 7.195 0.7311 1.068 0.5456-0.02788 1.912 0.3024 2.82-0.07899 2.069-0.2759 4.134-0.2915 6.205-1.097 0.326-2.386-0.0602-3.554 0.1549-2.137 0.0893-4.263 0.4696-6.408 0.2431-2.441-0.0848-4.885-0.1507-7.323-0.1594-1.113-0.1105-3.472-0.1342-3.93 0.2256 2.542 0.3373 5.094 0.6768 7.672 0.6858 1.701 0.1783 3.393-0.0253 5.094-0.0303 1.926-0.1866 3.846 0.0222 5.76 0.2004 1.547 0.1282 3.119 0.2242 4.659 0.0227 1.395 0.6836 0.1787 2.529 0.4365 3.686-0.2314 1.023 0.9001 3.266-1.209 2.713-1.261-0.2288-2.532-0.3308-3.798-0.5518-2.557-0.3244-5.143-0.431-7.722-0.4751-1.491 0.1608-2.994 0.196-4.475 0.4531-1.497 0.0463-2.973 0.303-4.459 0.4314-1.076 0.0671-2.152 0.1657-3.207 0.3725" fill="#f3e2d8" opacity=".1577" style="paint-order:markers stroke fill"/>
    <path d="m72.84 91.03c-1.419 0.4826-2.922 0.1045-4.379 0.15-0.9958 0.8199-0.7643 2.229-0.7636 3.368 0.01715 2.156 0.3726 4.415-0.4769 6.469 0.04552 0.5302-0.8405 1.784 0.3219 1.382 0.5175-0.0486 1.75-0.2323 1.813-0.0476-1.399 0.1154-2.805 0.1176-4.201 0.2716-1.03 1.051-0.8311 2.63-1.115 3.96-0.1846 1.712-0.1952 3.442-0.2482 5.158 0.07046 1.254 1.363 1.099 2.209 0.8077 1.364-0.2665 2.814-0.4526 4.149 0.0423 0.1171 0.0136 0.2348 0.02 0.3524 0.0272m-17.8-21.41c1.419 0.4826 2.922 0.1045 4.379 0.15 0.9958 0.8199 0.7643 2.229 0.7636 3.368-0.01715 2.156-0.3726 4.415 0.4769 6.469-0.04552 0.5302 0.8405 1.784-0.3219 1.382-0.5175-0.0486-1.75-0.2323-1.813-0.0476 1.399 0.1154 2.805 0.1176 4.201 0.2716 1.03 1.051 0.8311 2.63 1.115 3.96 0.1846 1.712 0.1952 3.442 0.2482 5.158-0.07046 1.254-1.363 1.099-2.209 0.8077-1.364-0.2665-2.814-0.4526-4.149 0.0423-0.1171 0.0136-0.2348 0.02-0.3524 0.0272" fill="none" opacity=".1577" stroke="#f3e2d8" stroke-width=".5292" style="paint-order:normal"/>
    <path d="m21.4 84.42a43.59 2.924 0 0 0-0.1039 0.03109c-0.5617 0.2199-0.884 0.5019-1.019 0.7846a43.59 2.924 0 0 0 0.01912 0.04115 43.59 2.924 0 0 0 0.2573 0.1829 43.59 2.924 0 0 0 0.4284 0.1814 43.59 2.924 0 0 0 0.5974 0.1795 43.59 2.924 0 0 0 0.7643 0.1762 43.59 2.924 0 0 0 0.9276 0.1728 43.59 2.924 0 0 0 1.087 0.1689 43.59 2.924 0 0 0 1.243 0.1637 43.59 2.924 0 0 0 1.394 0.1579 43.59 2.924 0 0 0 1.539 0.1521 43.59 2.924 0 0 0 1.678 0.1451 43.59 2.924 0 0 0 1.811 0.1378 43.59 2.924 0 0 0 1.936 0.1298 43.59 2.924 0 0 0 2.054 0.1216 43.59 2.924 0 0 0 2.164 0.1125 43.59 2.924 0 0 0 2.264 0.1033 43.59 2.924 0 0 0 2.357 0.09358 43.59 2.924 0 0 0 2.44 0.08352 43.59 2.924 0 0 0 2.513 0.07285 43.59 2.924 0 0 0 2.577 0.06218 43.59 2.924 0 0 0 2.63 0.05121 43.59 2.924 0 0 0 2.673 0.04023 43.59 2.924 0 0 0 2.705 0.02866 43.59 2.924 0 0 0 2.726 0.01738 43.59 2.924 0 0 0 2.737 0.0058 43.59 2.924 0 0 0 2.737-0.0058 43.59 2.924 0 0 0 2.726-0.01738 43.59 2.924 0 0 0 2.705-0.02866 43.59 2.924 0 0 0 2.672-0.04023 43.59 2.924 0 0 0 2.63-0.05121 43.59 2.924 0 0 0 2.577-0.06218 43.59 2.924 0 0 0 2.514-0.07285 43.59 2.924 0 0 0 2.44-0.08352 43.59 2.924 0 0 0 2.357-0.09358 43.59 2.924 0 0 0 2.265-0.1033 43.59 2.924 0 0 0 2.164-0.1125 43.59 2.924 0 0 0 2.054-0.1216 43.59 2.924 0 0 0 1.936-0.1298 43.59 2.924 0 0 0 1.811-0.1378 43.59 2.924 0 0 0 1.678-0.1451 43.59 2.924 0 0 0 1.539-0.1521 43.59 2.924 0 0 0 1.394-0.1579 43.59 2.924 0 0 0 1.243-0.1637 43.59 2.924 0 0 0 1.087-0.1689 43.59 2.924 0 0 0 0.9281-0.1728 43.59 2.924 0 0 0 0.7638-0.1762 43.59 2.924 0 0 0 0.57-0.1713c0.2767-0.3657 0.3993-0.7985-0.047-1.129a43.59 2.924 0 0 0-0.1586-0.05151 43.59 2.924 0 0 0-0.2103-0.06127 43.59 2.924 0 0 0-0.2294-0.06096 43.59 2.924 0 0 0-0.2496-0.06066 43.59 2.924 0 0 0-0.2677-0.06005c-3.6e-4 -4e-5 -6.7e-4 -2.64e-4 -1e-3 -3.05e-4 -2.596-0.2879-5.286-0.394-7.881-0.3932-1.697 4.94e-4 -3.353 0.0459-4.912 0.114-2e-5 8.85e-4 1e-5 0.0015 0 0.0024h-59.28c-3.988-0.159-7.624-0.06816-11.96 0.4712z" fill="#f3e2d8" opacity=".1577" style="paint-order:markers stroke fill"/>
   </g>
   <g>
    <path d="m60.57 82.67c-1.315-0.2282-2.665-0.1019-3.637 0.01-0.8009 0.1194-1.476 0.2675-2.18 0.4103-0.8264 0.1531-1.611 0.3155-2.23 0.5125-1.183 0.3431-1.738 0.7932-1.704 1.276-0.1032 0.1804 0.0022 0.3759 0.08731 0.5675 0.5947 0.1567 1.684 0.3225 2.5 0.3654 0.7069-0.1096 0.8213-0.3342 1.483-0.4579 0.4836-0.1831 1.099-0.342 1.92-0.4566 0.5885-0.14 1.321-0.2489 2.072-0.3482 0.5224-0.04224 1.897-0.2473 1.848 0.03313-0.1704 0.2658-0.2627 0.5995-1.529 0.6867-0.8844 0.1954 1.693 0.3466 2.371 0.296 1.166-0.01019 2.196-0.1205 2.477-0.361 0.5331-0.3105 0.1165-0.7053-0.4293-1.07-0.4154-0.3907-0.9755-0.7848-1.703-1.173l-0.07595-0.03269-0.08183-0.03245" fill="#e8d1ad" stroke="#595986" stroke-linecap="round" stroke-linejoin="bevel" stroke-width=".27" style="paint-order:normal"/>
    <path d="m62.91 80.41c-1.958 2.176-6.829-1.099-6.829-1.099s1.566 1.792 2.544 2.176l1.627 3.074s1.546-0.9162 2.829-0.5891c1.24 0.316 2.539-0.1954 2.539-0.1954-0.03625-0.04165-0.0628-0.1013-0.07514-0.1849" fill="#595986" style="paint-order:markers stroke fill"/>
   </g>
  </g>
  <g>
   <path d="m32.36 61.81c-2.922 1.359 5.501 4.61-0.05847 5.02-1.151 0.8038 2.572 2.625 3.704 3.08 3.651-0.06233 7.339-0.2101 10.94-0.6768-0.6321-0.9055-3.004-0.4963-0.4581-0.9472 1.156-0.9981 5.606-2.57 1.407-2.803-1.851-0.42-3.771-0.6053-1.059-1.51 2.039-0.3429 2.845-1.49 0.09764-1.111-3.502-0.05414-7.085 2.893-10.25 0.7064-0.5859-0.4047-2.704-1.586-4.322-1.758zm3.165 8.466c-3.19 0.4186-8.092 1.569-7.09 5.146 0.3411 2.692 1.596 5.226 2.208 7.875 2.444 3.306 7.966 3.736 12.27 3.694 4.831 0.08206 8.068-3.591 8.87-7.148 1.055-3.507 0.4095-8.016-3.868-9.833 0 0-0.4-0.4414-0.6994-0.5223-0.6148-0.1663-1.932 0.1616-1.932 0.1616-1.925 0.1745-6.294 0.619-9.76 0.6273zm-0.08952-0.1691c-0.2967-0.7041 0.141 0.4387 0 0zm10.61-6.705c0.6656 0.6459-6.962 3.309-2.373 2.485 1.798-0.5381 7.222 0.7597 2.516 0.6972-2.633 1.226-5.148-0.7287-7.335 0.6487-1.799 0.304-5.308-0.1385-2.571-1.241 1.047 1.24 4.337 0.1801 1.369-0.1315-1.18-0.2164-4.011-2.757-0.5584-1.196 2.482 0.6978 4.216 0.8625 6.527-0.5107 1.17-0.6951 1.526-0.7052 2.425-0.7515z" fill="#59959d" style="paint-order:markers stroke fill"/>
   <g fill="#fdcc4e" stroke-linecap="round" stroke-linejoin="bevel">
    <text transform="scale(.8504 1.176)" x="52.439079" y="66.299141" font-size="7.718px" stroke-dasharray="1.15764, 0.28941" stroke-width=".2894" style="paint-order:markers stroke fill" xml:space="preserve"><tspan x="52.439079" y="66.299141" fill="#fdcc4e" font-size="7.718px" stroke-width=".2894">$</tspan></text>
    <text transform="scale(1.125 .8886)" x="31.559481" y="92.16893" font-size="14.94px" stroke-dasharray="2.24028, 0.560071" stroke-width=".5601" style="paint-order:markers stroke fill" xml:space="preserve"><tspan x="31.559481" y="92.16893" fill="#fdcc4e" font-size="14.94px" stroke-width=".5601">$</tspan></text>
    <text transform="scale(.8347 1.198)" x="39.108963" y="66.239014" font-size="8.508px" stroke-dasharray="1.27622, 0.319056" stroke-width=".3191" style="paint-order:markers stroke fill" xml:space="preserve"><tspan x="39.108963" y="66.239014" fill="#fdcc4e" font-size="8.508px" stroke-width=".3191">$</tspan></text>
   </g>
  </g>
 </g>
</svg>
