<svg width="24" height="24" viewBox="0 0 24 24" fill="none" xmlns="http://www.w3.org/2000/svg">
<g id="SVG">
<g id="b">
<g id="c">
<path id="d" d="M20.9557 4.57354H16.3743V2.58277C16.3743 1.89421 15.8004 1.33398 15.0951 1.33398H9.05999C8.35466 1.33398 7.7808 1.89421 7.7808 2.58277V4.57354H3.19936C2.20462 4.57354 1.39539 5.36361 1.39539 6.33465V19.324C1.39539 20.295 2.20462 21.0851 3.19936 21.0851H20.9557C21.9505 21.0851 22.7597 20.295 22.7597 19.324V6.33465C22.7597 5.36361 21.9504 4.57354 20.9557 4.57354ZM8.76479 2.58277C8.76479 2.42389 8.89723 2.29459 9.05999 2.29459H15.0951C15.2579 2.29459 15.3903 2.42389 15.3903 2.58277V4.57354H14.7999V3.35126C14.7999 3.08601 14.5796 2.87096 14.3079 2.87096H9.84718C9.57546 2.87096 9.35518 3.08601 9.35518 3.35126V4.57354H8.76479V2.58277ZM13.8159 3.83156V4.57354H10.3392V3.83156H13.8159ZM21.7757 19.3242C21.7757 19.7656 21.4079 20.1248 20.9557 20.1248H3.19936C2.74719 20.1248 2.37937 19.7656 2.37937 19.3242V13.1163C2.87419 13.3639 3.07328 13.3096 5.1634 13.3096V14.7185C5.1634 14.9838 5.38368 15.1988 5.65539 15.1988H8.00384C8.27555 15.1988 8.49583 14.9838 8.49583 14.7185V13.3096H15.6593V14.7185C15.6593 14.9838 15.8795 15.1988 16.1513 15.1988H18.4997C18.7714 15.1988 18.9917 14.9838 18.9917 14.7185V13.3096C21.0856 13.3096 21.282 13.3634 21.7757 13.1163V19.3242ZM6.14739 14.2382V11.4204H7.51185V14.2382H6.14739ZM16.6432 14.2382V11.4204H18.0077V14.2382H16.6432ZM21.7757 11.5484C21.7757 11.9899 21.4079 12.349 20.9557 12.349H18.9917V10.9401C18.9917 10.6747 18.7714 10.4598 18.4997 10.4598H16.1513C15.8795 10.4598 15.6593 10.6747 15.6593 10.9401V12.349H8.49583V10.9401C8.49583 10.6747 8.27555 10.4598 8.00384 10.4598H5.65539C5.38368 10.4598 5.1634 10.6747 5.1634 10.9401V12.349H3.19936C2.74719 12.349 2.37937 11.9899 2.37937 11.5484V6.33491C2.37937 5.89348 2.74719 5.5344 3.19936 5.5344H20.9557C21.4079 5.5344 21.7757 5.89348 21.7757 6.33491V11.5484Z" fill="#FDCC4E"/>
</g>
</g>
<path id="e" d="M2.81601 21.0229C2.14859 20.8778 1.60924 20.3493 1.45647 19.6907C1.41579 19.5153 1.41101 18.6478 1.41816 12.7372L1.42632 5.98417L1.50694 5.77708C1.72324 5.22148 2.16139 4.82064 2.74556 4.64392C2.89506 4.5987 3.19791 4.59144 5.35484 4.58133L7.79493 4.56989L7.81391 2.29421L7.91234 2.08644C8.07688 1.73913 8.37345 1.4928 8.74293 1.3966C8.90408 1.35464 9.33086 1.34848 12.0775 1.34848C15.5529 1.34848 15.4257 1.34174 15.7632 1.54359C15.9747 1.67008 16.1216 1.83781 16.2442 2.09266L16.3411 2.29421L16.3601 4.56989L18.8002 4.58133C21.4871 4.59392 21.3539 4.58448 21.7758 4.79216C22.0063 4.90564 22.3251 5.1923 22.4674 5.41407C22.5224 5.49982 22.6037 5.66318 22.6481 5.77708L22.7287 5.98417L22.7368 12.7372C22.7459 20.2442 22.7612 19.6873 22.5347 20.1204C22.3011 20.5667 21.8324 20.9189 21.3333 21.0232C21.0215 21.0884 3.11594 21.0883 2.81601 21.0231L2.81601 21.0229ZM21.2633 20.0774C21.4568 20.005 21.629 19.8406 21.7182 19.6431C21.7803 19.5057 21.7812 19.4536 21.7819 16.2986C21.7826 13.258 21.7798 13.095 21.7283 13.1174C21.3711 13.2726 21.3984 13.2696 20.1547 13.2862L18.9765 13.302L18.961 14.0982C18.9382 15.2661 19.0723 15.1778 17.3218 15.1779C16.0727 15.1779 16.0361 15.1762 15.9223 15.1122C15.8581 15.0761 15.7759 14.994 15.7398 14.9297C15.6779 14.8195 15.6742 14.7696 15.6742 14.0497V13.2865H8.48035V14.0497C8.48035 14.7696 8.47662 14.8196 8.41468 14.9297C8.37856 14.994 8.29642 15.0761 8.23216 15.1122C8.11838 15.1762 8.0817 15.1779 6.83275 15.1779C5.42 15.1778 5.41683 15.1774 5.27328 14.9819C5.21334 14.9003 5.20802 14.8413 5.19356 14.0982L5.17805 13.302L3.99979 13.2862C2.75609 13.2696 2.78336 13.2726 2.42617 13.1174C2.37469 13.095 2.37193 13.258 2.37221 16.2987L2.37251 19.5035L2.44593 19.6586C2.53935 19.8558 2.69217 20.001 2.88605 20.0767C3.0352 20.135 3.23837 20.1363 12.0681 20.1377C21.0143 20.1392 21.0997 20.1386 21.2633 20.0774ZM7.51904 12.8214V11.395H6.12368V14.2477H7.51904V12.8214ZM18.0305 12.8214V11.395H16.6351V14.2477H18.0305V12.8214ZM5.19332 11.5753C5.19332 10.8209 5.19566 10.7908 5.26167 10.6945C5.41103 10.4765 5.3783 10.4813 6.79019 10.4716C8.061 10.4629 8.06159 10.4629 8.19925 10.5336C8.46268 10.6689 8.46337 10.6715 8.47387 11.5678L8.48311 12.3563H15.671L15.6802 11.5678C15.6907 10.6716 15.6914 10.6689 15.9548 10.5336C16.0925 10.4629 16.093 10.4629 17.3639 10.4716C18.7758 10.4813 18.7431 10.4765 18.8924 10.6945C18.9584 10.7908 18.9608 10.821 18.9608 11.5753V12.3563L20.0538 12.356C21.1341 12.3557 21.1486 12.3549 21.3025 12.2832C21.486 12.1978 21.6265 12.0654 21.7081 11.9011C21.7644 11.7878 21.7673 11.6605 21.7752 8.96651C21.783 6.27962 21.7808 6.1444 21.7258 6.02074C21.6411 5.83027 21.5222 5.70455 21.3415 5.61449L21.1811 5.53456H2.97257L2.81217 5.6145C2.634 5.70328 2.5142 5.82861 2.42915 6.01519C2.37579 6.13223 2.37257 6.29573 2.37193 8.91666C2.37117 12.0069 2.36178 11.8646 2.58144 12.0915C2.6449 12.1571 2.76659 12.2434 2.85186 12.2832C3.00509 12.3548 3.01964 12.3557 4.09991 12.356L5.19291 12.3563L5.19332 11.5753ZM9.37946 3.89876C9.37961 3.14608 9.39323 3.08904 9.60387 2.96059C9.70238 2.90053 9.76463 2.89898 12.077 2.89898C14.3895 2.89898 14.4517 2.90053 14.5502 2.96059C14.7609 3.08902 14.7745 3.14605 14.7746 3.89876L14.7748 4.57319H15.3949V2.45992L15.3043 2.36928L15.2136 2.27864H8.94055L8.75927 2.45991V4.57318H9.37943L9.37957 3.89876L9.37946 3.89876ZM13.8445 4.20109V3.829H10.3096V4.57322H13.8445V4.20109Z" fill="#A9C3C7" stroke="#FDCC4E" stroke-width="0.0992631"/>
<g id="Group">
<path id="f" d="M8.82167 3.51331V2.51501L8.90499 2.42804L8.98831 2.34106H15.205L15.2692 2.43112C15.3308 2.51767 15.3333 2.55996 15.3333 3.51638V4.51159H14.8372V3.92067C14.8372 3.23613 14.8113 3.09238 14.6649 2.96386C14.5835 2.89237 14.5212 2.86934 14.3663 2.85339C14.2586 2.8423 13.1494 2.83761 11.9014 2.84295C9.66569 2.85253 9.63113 2.85361 9.54675 2.9166C9.33739 3.07296 9.33429 3.08563 9.32291 3.83164L9.31254 4.5116H8.82166L8.82167 3.51331Z" fill="#FDCC4E" stroke="#FDCC4E" stroke-width="0.0992631"/>
<path id="g" d="M3.02064 12.266C2.76144 12.2153 2.51496 11.9804 2.47494 11.7458C2.46099 11.6641 2.44958 10.3623 2.44958 8.85301C2.44958 6.31564 2.45361 6.1015 2.50294 6.01137C2.57678 5.87648 2.7288 5.73035 2.87053 5.65805C2.98816 5.59804 3.11059 5.59723 12.0776 5.59723C21.0444 5.59723 21.1668 5.59804 21.2847 5.65805C21.4264 5.73035 21.5784 5.87648 21.6523 6.01137C21.7007 6.09985 21.7065 6.27503 21.7146 7.90732C21.7196 8.89648 21.7125 10.1894 21.699 10.7806L21.6744 11.8554L21.5785 11.9744C21.5257 12.0398 21.4153 12.1352 21.333 12.1864L21.1835 12.2794L19.0265 12.2992L19.008 10.7553L18.9234 10.6275C18.8645 10.5386 18.8032 10.4887 18.7218 10.4633C18.5579 10.4122 16.2334 10.3841 16.0592 10.4311C15.8882 10.4772 15.7309 10.5874 15.6764 10.6992C15.6424 10.7689 15.6284 10.9724 15.6183 11.543L15.605 12.2949H8.55047L8.53718 11.543C8.52709 10.9723 8.51309 10.7689 8.47911 10.6992C8.4246 10.5874 8.26723 10.4772 8.09631 10.4311C7.92208 10.3841 5.59763 10.4122 5.43367 10.4633C5.35233 10.4887 5.29099 10.5386 5.23212 10.6275L5.14749 10.7553L5.13823 11.5251L5.12896 12.2949L4.13051 12.2913C3.58134 12.2894 3.08202 12.278 3.02093 12.266L3.02064 12.266Z" fill="#FDCC4E" stroke="#FDCC4E" stroke-width="0.0992631"/>
<path id="h" d="M3.45213 20.0486C2.90439 20.0308 2.90426 20.0308 2.76996 19.9366C2.69608 19.8847 2.59028 19.7667 2.53486 19.6744L2.43408 19.5064L2.43442 16.4818C2.43461 14.8183 2.44359 13.4037 2.45438 13.3385C2.4714 13.2355 2.48265 13.2224 2.53931 13.2398C2.57523 13.2508 2.65346 13.2741 2.71315 13.2915C2.77284 13.3088 3.32802 13.3323 3.9469 13.3436C4.89789 13.361 5.07667 13.3714 5.10143 13.4107C5.11758 13.4363 5.13203 13.7293 5.13353 14.0618C5.13504 14.3944 5.14681 14.7406 5.15969 14.8311C5.19243 15.0613 5.30396 15.169 5.5515 15.2095C5.78317 15.2474 7.98834 15.2485 8.15106 15.2108C8.30066 15.1761 8.47145 15.0144 8.51174 14.8694C8.52853 14.809 8.54235 14.4421 8.54244 14.0541L8.54259 13.3487H15.6124L15.6126 14.0541C15.6127 14.4421 15.6269 14.8105 15.6442 14.8727C15.6932 15.049 15.8808 15.1995 16.0825 15.2244C16.1736 15.2356 16.7853 15.2402 17.4419 15.2347C19.0976 15.2207 18.9992 15.2882 19.0233 14.1496C19.0318 13.7459 19.0504 13.404 19.0646 13.3899C19.0788 13.3757 19.595 13.3549 20.2119 13.3436C20.8287 13.3323 21.3823 13.3088 21.4419 13.2914C21.5016 13.274 21.5807 13.2506 21.6176 13.2393C21.6792 13.2204 21.6865 13.2325 21.7051 13.3845C21.7162 13.4756 21.7209 14.8967 21.7154 16.5425C21.7062 19.334 21.7018 19.5414 21.6507 19.635C21.5744 19.7746 21.4118 19.9307 21.2684 20.0018C21.1496 20.0608 20.9892 20.0619 12.5735 20.0642C7.85801 20.0655 3.75329 20.0585 3.45189 20.0487L3.45213 20.0486Z" fill="#FDCC4E" stroke="#FDCC4E" stroke-width="0.0992631"/>
<path id="i" d="M6.18604 12.8216V11.4573H7.45737V14.1859H6.18604V12.8216Z" fill="#FDCC4E" stroke="#FDCC4E" stroke-width="0.0992631"/>
<path id="j" d="M16.6979 12.8216V11.4573H17.9692V14.1859H16.6979V12.8216Z" fill="#FDCC4E" stroke="#FDCC4E" stroke-width="0.0992631"/>
</g>
<g id="k">
<path id="l" d="M23.204 18.0331H18.1138V23.1708H16.5633V18.0331H11.4731V16.5248H16.5633V11.3872H18.1138V16.5248H23.204V18.0331Z" fill="#A9C3C7" stroke="#FDCC4E" stroke-width="0.534136" stroke-linecap="round" stroke-linejoin="round"/>
</g>
</g>
</svg>
