<svg width="41" height="40" viewBox="0 0 41 40" fill="none" xmlns="http://www.w3.org/2000/svg">
<g id="apartment">
<mask id="mask0_5_421" style="mask-type:alpha" maskUnits="userSpaceOnUse" x="0" y="0" width="41" height="40">
<rect id="Bounding box" x="0.5" width="40" height="40" fill="#D9D9D9"/>
</mask>
<g mask="url(#mask0_5_421)">
<path id="apartment_2" d="M8 32V32.5H8.5H18.8778H19.3778V32V27.0556H21.6222V32V32.5H22.1222H32.5H33V32V18.8889V18.3889H32.5H27.5556V8V7.5H27.0556H13.9444H13.4444V8V12.9444H8.5H8V13.4444V32ZM13.4444 27.0556V29.2778H11.2222V27.0556H13.4444ZM13.4444 21.6111V23.8333H11.2222V21.6111H13.4444ZM13.4444 16.1667V18.3889H11.2222V16.1667H13.4444ZM18.8889 21.6111V23.8333H16.6667V21.6111H18.8889ZM18.8889 16.1667V18.3889H16.6667V16.1667H18.8889ZM18.8889 10.7222V12.9444H16.6667V10.7222H18.8889ZM24.3333 21.6111V23.8333H22.1111V21.6111H24.3333ZM24.3333 16.1667V18.3889H22.1111V16.1667H24.3333ZM24.3333 10.7222V12.9444H22.1111V10.7222H24.3333ZM29.7778 27.0556V29.2778H27.5556V27.0556H29.7778ZM29.7778 21.6111V23.8333H27.5556V21.6111H29.7778Z" fill="#FDCC4E" stroke="#A9C3C7"/>
</g>
</g>
</svg>
