<svg width="27" height="19" viewBox="0 0 27 19" fill="none" xmlns="http://www.w3.org/2000/svg">
<path id="menu_open" d="M0.5 17.4332V17.9332H1H18.3974H18.8974V17.4332V14.8026V14.3026H18.3974H1H0.5V14.8026V17.4332ZM22.8113 16.1926L23.1678 16.5514L23.5225 16.1907L25.3565 14.3252L25.7026 13.9732L25.3551 13.6227L20.9657 9.19445L25.3353 4.75692L25.6834 4.40339L25.3326 4.05255L23.4985 2.2185L23.1439 1.86382L22.7903 2.21962L16.2087 8.84319L15.8584 9.19562L16.2087 9.54805L22.8113 16.1926ZM0.5 10.4428V10.9428H1H14.4568H14.9568V10.4428V7.83318V7.33318H14.4568H1H0.5V7.83318V10.4428ZM0.5 3.60958V4.10958H1H18.3974H18.8974V3.60958V1V0.5H18.3974H1H0.5V1V3.60958Z" fill="#FDCC4E" stroke="#A9C3C7"/>
</svg>
