<svg width="21" height="24" viewBox="0 0 21 24" fill="none" xmlns="http://www.w3.org/2000/svg">
<g id="SVG">
<g id="b">
<g id="c">
<path id="d" d="M13.369 1.94828H11.1029V1.213C11.1029 0.958686 10.8191 0.75177 10.4702 0.75177H7.48515C7.13628 0.75177 6.85244 0.958686 6.85244 1.213V1.94828H4.58637C4.09435 1.94828 3.69409 2.24008 3.69409 2.59873V7.39625C3.69409 7.7549 4.09435 8.04671 4.58637 8.04671H13.369C13.861 8.04671 14.2613 7.7549 14.2613 7.39625V2.59873C14.2613 2.24008 13.861 1.94828 13.369 1.94828ZM7.33914 1.213C7.33914 1.15432 7.40465 1.10656 7.48515 1.10656H10.4702C10.5507 1.10656 10.6162 1.15432 10.6162 1.213V1.94828H10.3242V1.49684C10.3242 1.39887 10.2153 1.31944 10.0809 1.31944H7.87451C7.74011 1.31944 7.63116 1.39887 7.63116 1.49684V1.94828H7.33914V1.213ZM9.83753 1.67423V1.94828H8.11786V1.67423H9.83753ZM13.7746 7.39635C13.7746 7.55936 13.5927 7.69201 13.369 7.69201H4.58637C4.36272 7.69201 4.18079 7.55936 4.18079 7.39635V5.10348C4.42553 5.19495 4.52401 5.17486 5.55782 5.17486V5.69523C5.55782 5.79322 5.66678 5.87262 5.80117 5.87262H6.96276C7.09715 5.87262 7.20611 5.79322 7.20611 5.69523V5.17486H10.7493V5.69523C10.7493 5.79322 10.8582 5.87262 10.9926 5.87262H12.1542C12.2886 5.87262 12.3976 5.79322 12.3976 5.69523V5.17486C13.4333 5.17486 13.5304 5.19476 13.7746 5.10348V7.39635ZM6.04452 5.51783V4.4771H6.71941V5.51783H6.04452ZM11.236 5.51783V4.4771H11.9109V5.51783H11.236ZM13.7746 4.52441C13.7746 4.68745 13.5927 4.82007 13.369 4.82007H12.3976V4.29971C12.3976 4.20171 12.2886 4.12231 12.1542 4.12231H10.9926C10.8582 4.12231 10.7493 4.20171 10.7493 4.29971V4.82007H7.20611V4.29971C7.20611 4.20171 7.09715 4.12231 6.96276 4.12231H5.80117C5.66678 4.12231 5.55782 4.20171 5.55782 4.29971V4.82007H4.58637C4.36272 4.82007 4.18079 4.68745 4.18079 4.52441V2.59883C4.18079 2.43579 4.36272 2.30316 4.58637 2.30316H13.369C13.5927 2.30316 13.7746 2.43579 13.7746 2.59883V4.52441Z" fill="#FDCC4E"/>
</g>
</g>
<g id="e">
<g id="f">
<path id="g" d="M13.3373 9.73526H11.0712V8.99999C11.0712 8.74567 10.7874 8.53876 10.4385 8.53876H7.45341C7.10455 8.53876 6.8207 8.74567 6.8207 8.99999V9.73526H4.55463C4.06261 9.73526 3.66235 10.0271 3.66235 10.3857V15.1832C3.66235 15.5419 4.06261 15.8337 4.55463 15.8337H13.3373C13.8293 15.8337 14.2296 15.5419 14.2296 15.1832V10.3857C14.2296 10.0271 13.8293 9.73526 13.3373 9.73526ZM7.3074 8.99999C7.3074 8.94131 7.37291 8.89355 7.45341 8.89355H10.4385C10.519 8.89355 10.5845 8.94131 10.5845 8.99999V9.73526H10.2925V9.28382C10.2925 9.18585 10.1835 9.10643 10.0491 9.10643H7.84277C7.70838 9.10643 7.59942 9.18585 7.59942 9.28382V9.73526H7.3074V8.99999ZM9.80579 9.46122V9.73526H8.08612V9.46122H9.80579ZM13.7429 15.1833C13.7429 15.3463 13.5609 15.479 13.3373 15.479H4.55463C4.33098 15.479 4.14905 15.3463 4.14905 15.1833V12.8905C4.3938 12.9819 4.49227 12.9619 5.52608 12.9619V13.4822C5.52608 13.5802 5.63504 13.6596 5.76943 13.6596H6.93102C7.06541 13.6596 7.17437 13.5802 7.17437 13.4822V12.9619H10.7175V13.4822C10.7175 13.5802 10.8265 13.6596 10.9609 13.6596H12.1225C12.2569 13.6596 12.3658 13.5802 12.3658 13.4822V12.9619C13.4015 12.9619 13.4986 12.9817 13.7429 12.8905V15.1833ZM6.01278 13.3048V12.2641H6.68767V13.3048H6.01278ZM11.2042 13.3048V12.2641H11.8791V13.3048H11.2042ZM13.7429 12.3114C13.7429 12.4744 13.5609 12.6071 13.3373 12.6071H12.3658V12.0867C12.3658 11.9887 12.2569 11.9093 12.1225 11.9093H10.9609C10.8265 11.9093 10.7175 11.9887 10.7175 12.0867V12.6071H7.17437V12.0867C7.17437 11.9887 7.06541 11.9093 6.93102 11.9093H5.76943C5.63504 11.9093 5.52608 11.9887 5.52608 12.0867V12.6071H4.55463C4.33098 12.6071 4.14905 12.4744 4.14905 12.3114V10.3858C4.14905 10.2228 4.33098 10.0902 4.55463 10.0902H13.3373C13.5609 10.0902 13.7429 10.2228 13.7429 10.3858V12.3114Z" fill="#FDCC4E"/>
</g>
</g>
<g id="h">
<g id="i">
<path id="j" d="M13.3373 17.3992H11.0712V16.6639C11.0712 16.4096 10.7874 16.2027 10.4385 16.2027H7.45341C7.10455 16.2027 6.8207 16.4096 6.8207 16.6639V17.3992H4.55463C4.06261 17.3992 3.66235 17.691 3.66235 18.0497V22.8472C3.66235 23.2058 4.06261 23.4976 4.55463 23.4976H13.3373C13.8293 23.4976 14.2296 23.2058 14.2296 22.8472V18.0497C14.2296 17.691 13.8293 17.3992 13.3373 17.3992ZM7.3074 16.6639C7.3074 16.6052 7.37291 16.5575 7.45341 16.5575H10.4385C10.519 16.5575 10.5845 16.6052 10.5845 16.6639V17.3992H10.2925V16.9478C10.2925 16.8498 10.1835 16.7704 10.0491 16.7704H7.84277C7.70838 16.7704 7.59942 16.8498 7.59942 16.9478V17.3992H7.3074V16.6639ZM9.80579 17.1252V17.3992H8.08612V17.1252H9.80579ZM13.7429 22.8473C13.7429 23.0103 13.5609 23.1429 13.3373 23.1429H4.55463C4.33098 23.1429 4.14905 23.0103 4.14905 22.8473V20.5544C4.3938 20.6459 4.49227 20.6258 5.52608 20.6258V21.1462C5.52608 21.2441 5.63504 21.3236 5.76943 21.3236H6.93102C7.06541 21.3236 7.17437 21.2441 7.17437 21.1462V20.6258H10.7175V21.1462C10.7175 21.2441 10.8265 21.3236 10.9609 21.3236H12.1225C12.2569 21.3236 12.3658 21.2441 12.3658 21.1462V20.6258C13.4015 20.6258 13.4986 20.6457 13.7429 20.5544V22.8473ZM6.01278 20.9688V19.928H6.68767V20.9688H6.01278ZM11.2042 20.9688V19.928H11.8791V20.9688H11.2042ZM13.7429 19.9753C13.7429 20.1384 13.5609 20.271 13.3373 20.271H12.3658V19.7506C12.3658 19.6526 12.2569 19.5732 12.1225 19.5732H10.9609C10.8265 19.5732 10.7175 19.6526 10.7175 19.7506V20.271H7.17437V19.7506C7.17437 19.6526 7.06541 19.5732 6.93102 19.5732H5.76943C5.63504 19.5732 5.52608 19.6526 5.52608 19.7506V20.271H4.55463C4.33098 20.271 4.14905 20.1384 4.14905 19.9753V18.0498C4.14905 17.8867 4.33098 17.7541 4.55463 17.7541H13.3373C13.5609 17.7541 13.7429 17.8867 13.7429 18.0498V19.9753Z" fill="#FDCC4E"/>
</g>
</g>
<g id="Group">
<path id="k" d="M4.35824 8.00366C4.05101 7.93474 3.84022 7.78177 3.74789 7.56072C3.70723 7.46339 3.70161 7.14758 3.70219 4.99359C3.70293 2.2199 3.68747 2.40258 3.93976 2.18659C4.18686 1.97509 4.19586 1.97387 5.60454 1.9622L6.8657 1.95176V1.54003C6.8657 1.16291 6.87135 1.11977 6.93291 1.02687C6.97064 0.969922 7.06555 0.892715 7.14933 0.850814L7.29854 0.776186L8.89559 0.766704C10.7202 0.755869 10.7388 0.75756 10.9426 0.952813L11.0747 1.07939V1.95227L12.3359 1.96275C13.2267 1.97015 13.6293 1.98398 13.7068 2.00983C13.8841 2.06892 14.0981 2.22971 14.1705 2.35825L14.2379 2.47765L14.2384 4.9974L14.2389 7.51715L14.1662 7.64127C14.0853 7.77923 13.9343 7.89567 13.7314 7.97639C13.6046 8.02687 13.3436 8.03015 9.05981 8.03515C5.55407 8.03924 4.48516 8.03206 4.35834 8.0036L4.35824 8.00366ZM13.5093 7.68299C13.5925 7.66203 13.6701 7.61645 13.7166 7.56129L13.7908 7.4731V6.27818C13.7908 5.15069 13.7878 5.08467 13.7385 5.10788C13.7098 5.12141 13.3941 5.13722 13.037 5.14301L12.3878 5.15355V5.43173C12.3878 5.867 12.4205 5.84884 11.6159 5.85993C11.0625 5.86756 10.9437 5.86152 10.867 5.82185L10.7758 5.7747V5.14937H7.19374V5.44325C7.19374 5.86665 7.22654 5.84855 6.4384 5.86005C6.092 5.86511 5.77864 5.86173 5.74205 5.85254C5.60408 5.81792 5.5818 5.76165 5.5818 5.44784V5.15355L4.93255 5.14301C4.57546 5.13722 4.25979 5.12141 4.23105 5.10788C4.18176 5.08467 4.17881 5.15138 4.17881 6.29211C4.17881 7.39904 4.18322 7.50633 4.23105 7.56506C4.35652 7.71909 4.18983 7.71378 8.94918 7.71519C12.1271 7.71613 13.4138 7.70703 13.5093 7.68299ZM6.74601 5.00008V4.46277H6.02959V5.53742H6.74601V5.00008ZM11.9333 4.99262L11.9414 4.46277H11.2236V5.53926L11.9251 5.52244L11.9333 4.99262ZM5.58824 4.51582C5.59637 4.22415 5.60004 4.20899 5.67137 4.17297C5.72451 4.14614 5.93174 4.13516 6.39122 4.13485C6.99914 4.13444 7.041 4.13799 7.1151 4.19628C7.19014 4.2553 7.19376 4.2711 7.19376 4.53956V4.82098H10.7738L10.7823 4.51582C10.7904 4.22415 10.7941 4.209 10.8654 4.17298C10.9186 4.14614 11.1258 4.13517 11.5853 4.13485C12.1932 4.13444 12.2351 4.13799 12.3092 4.19628C12.3842 4.2553 12.3878 4.2711 12.3878 4.53957V4.82098H12.9565C13.4026 4.82098 13.5437 4.81137 13.6114 4.77638C13.7929 4.68248 13.7908 4.69695 13.7908 3.56466C13.7908 2.54904 13.7896 2.52907 13.7261 2.4483C13.5894 2.27459 13.852 2.28366 8.97832 2.28436C4.64126 2.285 4.48812 2.2869 4.36786 2.34153C4.29941 2.37261 4.22888 2.42516 4.21115 2.45832C4.16064 2.55269 4.16882 4.61123 4.21998 4.67858C4.31519 4.80395 4.4074 4.82063 5.0062 4.82082L5.57978 4.821L5.58824 4.51582ZM7.64152 1.70616C7.64152 1.31626 7.54095 1.34496 8.94269 1.33487C10.3906 1.32446 10.2983 1.30045 10.2983 1.68738V1.95527H10.6266V1.55333C10.6266 1.1865 10.6216 1.1487 10.5689 1.1205C10.5312 1.10033 9.97186 1.0896 8.95907 1.0896C7.58789 1.0896 7.40152 1.09506 7.36011 1.1365C7.3223 1.17431 7.3132 1.2583 7.3132 1.56934V1.95527H7.64155L7.64152 1.70616ZM9.85051 1.80602V1.65676H8.08934V1.95527H9.85051V1.80602Z" fill="#A9C3C7" stroke="#A9C3C7" stroke-width="0.0955637"/>
<path id="l" d="M4.13731 15.7325C4.04044 15.6927 3.91635 15.6166 3.86156 15.5635C3.66099 15.3691 3.66891 15.4916 3.67819 12.7295L3.68657 10.2347L3.7612 10.1245C3.84852 9.99553 4.00451 9.88005 4.18494 9.81081C4.29566 9.76833 4.48798 9.7603 5.57463 9.75282L6.83579 9.74414V9.33186C6.83579 8.9517 6.84111 8.91168 6.90411 8.81815C6.94168 8.76237 7.03236 8.68314 7.1056 8.64209L7.23877 8.56747L8.87702 8.55902C10.7421 8.54941 10.7454 8.54974 10.9366 8.76134L11.0447 8.88107V9.74364L13.597 9.76153L13.776 9.84535C13.9871 9.94419 14.0748 10.0201 14.1521 10.1708C14.2066 10.2771 14.2089 10.3828 14.2089 12.7762C14.2089 14.8149 14.2015 15.2887 14.1682 15.3683C14.1458 15.4218 14.0659 15.5199 13.9906 15.5862C13.7215 15.823 14.1057 15.8064 8.92938 15.8056L4.31338 15.8049L4.13731 15.7325ZM13.5728 15.4408C13.767 15.3346 13.7612 15.3767 13.7612 14.0648V12.874L13.694 12.8973C13.6571 12.9102 13.3414 12.9261 12.9926 12.9328L12.3582 12.9449V13.2134C12.3582 13.5207 12.3368 13.5782 12.2052 13.6241C12.0565 13.6759 10.9788 13.6677 10.8498 13.6138L10.7463 13.5706V12.9406H7.16419V13.2209C7.16419 13.655 7.18936 13.6399 6.44505 13.6519C6.11223 13.6573 5.79578 13.6534 5.74183 13.6433C5.57312 13.6116 5.55225 13.5671 5.55225 13.2391V12.9448L4.903 12.9321C4.54591 12.9251 4.22688 12.9141 4.19405 12.9076C4.13531 12.8961 4.13422 12.9139 4.12652 14.0107C4.12152 14.7217 4.13006 15.1678 4.15008 15.2421C4.18529 15.3729 4.27664 15.4471 4.44288 15.4799C4.50304 15.4917 6.5605 15.4995 9.01495 15.4971C13.1985 15.4931 13.4836 15.4896 13.5729 15.4408L13.5728 15.4408ZM6.71646 12.7914V12.2541H6.00004V13.3287H6.71646V12.7914ZM11.8806 12.7914V12.2541H11.1941V13.3287H11.8806V12.7914ZM5.55227 12.3155C5.55227 11.9058 5.51184 11.9257 6.34593 11.9257C6.96943 11.9257 7.01137 11.9292 7.08558 11.9876C7.16061 12.0466 7.16423 12.0624 7.16423 12.3309V12.6123H10.7463V12.3155C10.7463 11.9058 10.7059 11.9257 11.54 11.9257C12.1635 11.9257 12.2054 11.9292 12.2796 11.9876C12.3547 12.0466 12.3583 12.0624 12.3583 12.3309V12.6123H12.9269C13.373 12.6123 13.5142 12.6027 13.5818 12.5677C13.7632 12.4739 13.7613 12.487 13.7613 11.3683C13.7613 10.6598 13.7507 10.3233 13.7268 10.2708C13.7079 10.2293 13.6365 10.1682 13.5681 10.1351C13.4453 10.0756 13.3939 10.075 8.94493 10.075C4.11509 10.075 4.33241 10.0682 4.19416 10.2232C4.13685 10.2875 4.13446 10.3324 4.13446 11.3443V12.3985L4.20909 12.4788C4.25013 12.5229 4.31058 12.5702 4.34341 12.5838C4.37625 12.5974 4.6617 12.6093 4.97774 12.6104L5.55237 12.6123L5.55227 12.3155ZM7.61196 9.49504C7.61196 9.09479 7.52411 9.11965 8.93687 9.12018C9.81683 9.12047 10.1229 9.1299 10.1791 9.15829C10.2495 9.19383 10.2542 9.21153 10.2623 9.47128L10.2709 9.7466H10.597V9.34467C10.597 8.97784 10.592 8.94004 10.5393 8.91183C10.5016 8.89167 9.94225 8.88093 8.92947 8.88093C7.55828 8.88093 7.37191 8.8864 7.3305 8.92784C7.29269 8.96565 7.28359 9.04963 7.28359 9.36068V9.7466H7.61195L7.61196 9.49504ZM9.82095 9.59735V9.4481H8.05979V9.7466H9.82095V9.59735Z" fill="#A9C3C7" stroke="#A9C3C7" stroke-width="0.0955637"/>
<path id="m" d="M4.31342 23.4576C4.0541 23.4 3.82532 23.2391 3.73368 23.0498C3.67238 22.9231 3.67163 22.8918 3.67163 20.4479C3.67163 17.9849 3.6719 17.9737 3.73522 17.8429C3.77338 17.7641 3.85396 17.6715 3.93672 17.6115C4.19064 17.4272 4.26932 17.4181 5.61918 17.4181H6.83148L6.8411 16.9681L6.85071 16.5182L6.9738 16.4034C7.0415 16.3403 7.14896 16.2742 7.2126 16.2566C7.28879 16.2354 7.88911 16.2245 8.97008 16.2245L10.6119 16.2247L10.768 16.2974C11.0168 16.4132 11.0445 16.4827 11.0446 16.9913L11.0447 17.4152L13.6268 17.4331L13.7977 17.517C13.9917 17.6122 14.1702 17.8015 14.1948 17.9379C14.2039 17.9886 14.2074 19.1517 14.2027 20.5226L14.194 23.0152L14.1229 23.1148C14.0838 23.1696 13.9977 23.2537 13.9315 23.3017C13.6746 23.4878 13.952 23.4782 8.9423 23.4744C6.42925 23.4725 4.3462 23.4649 4.31341 23.4577L4.31342 23.4576ZM13.5817 23.0971C13.6389 23.0684 13.7025 23.0113 13.723 22.9703C13.7509 22.9145 13.7604 22.5998 13.7607 21.7206L13.7612 20.5455L13.6791 20.5672C13.6339 20.5792 13.3183 20.5953 12.9776 20.6031L12.3582 20.6173V20.8983C12.3582 21.3185 12.3984 21.2987 11.5471 21.2987C10.6975 21.2987 10.7463 21.3226 10.7463 20.906V20.6121H7.16417V20.8957C7.16417 21.3189 7.20495 21.2987 6.35311 21.2987C5.50403 21.2987 5.55223 21.3222 5.55223 20.9086V20.6172L4.9179 20.6032C4.56902 20.5954 4.24605 20.5791 4.20019 20.567L4.1168 20.545L4.12556 21.7403L4.13432 22.9357L4.20895 23.0159C4.24999 23.0601 4.31044 23.1073 4.34327 23.1209C4.37611 23.1345 6.44475 23.1464 8.94025 23.1474C13.2025 23.1492 13.4839 23.1461 13.5817 23.0971ZM6.71637 20.4479V19.9255H5.99995V20.9703H6.71637V20.4479ZM11.8806 20.4479V19.9255H11.194V20.9703H11.8806V20.4479ZM5.55219 19.9869C5.55219 19.5765 5.50908 19.5971 6.36479 19.5971C7.20318 19.5971 7.16412 19.5775 7.16412 20.0001V20.2837H10.7462V19.9869C10.7462 19.5765 10.7031 19.5971 11.5588 19.5971C12.3972 19.5971 12.3582 19.5775 12.3582 20.0001V20.2837H12.8949C13.4992 20.2837 13.6397 20.2527 13.7175 20.1024C13.7844 19.973 13.7817 18.0518 13.7144 17.9217C13.6185 17.7363 13.8947 17.7464 8.93971 17.7464C4.07096 17.7464 4.33661 17.7381 4.19387 17.8958C4.13664 17.959 4.13424 18.004 4.13424 19.0151C4.13424 20.0263 4.13663 20.0712 4.19394 20.1354C4.30924 20.2646 4.3998 20.2813 4.99247 20.2826L5.55218 20.2837L5.55219 19.9869ZM7.61188 17.1643C7.61188 16.7604 7.50295 16.7911 8.93362 16.7911C9.97348 16.7911 10.1449 16.7974 10.2023 16.8376C10.2624 16.8797 10.2686 16.909 10.2686 17.151V17.418H10.597V17.021C10.597 16.752 10.5854 16.6124 10.5612 16.5882C10.5095 16.5365 7.37105 16.5365 7.31939 16.5882C7.29512 16.6124 7.28357 16.752 7.28357 17.021V17.418H7.61193L7.61188 17.1643ZM9.82087 17.2688V17.1195H8.0597V17.418H9.82087V17.2688Z" fill="#A9C3C7" stroke="#A9C3C7" stroke-width="0.0955637"/>
</g>
<g id="Group_2">
<path id="n" d="M4.4517 4.73142C4.25342 4.68457 4.25688 4.70066 4.24351 3.76207C4.23686 3.29463 4.24067 2.81344 4.25198 2.69266C4.28684 2.32061 3.79911 2.35968 8.53709 2.34943C10.7781 2.34459 12.831 2.35262 13.0989 2.36728C13.54 2.39141 13.5922 2.40008 13.6512 2.45896C13.7145 2.5222 13.7165 2.54708 13.726 3.36648C13.7314 3.82985 13.7268 4.30686 13.7159 4.42646C13.6872 4.74057 13.6804 4.74366 12.9937 4.75662L12.4476 4.76693V4.51202C12.4476 4.28566 12.4395 4.24772 12.3756 4.17335L12.3036 4.0896L11.7263 4.07994C11.1012 4.06949 10.8724 4.08596 10.7882 4.1475C10.7443 4.17961 10.7319 4.2409 10.7216 4.47413L10.7091 4.76124H7.25353V4.50918C7.25353 4.28583 7.24533 4.24756 7.18155 4.17335L7.10957 4.0896L6.53229 4.07995C5.90717 4.06949 5.67835 4.08597 5.5942 4.14751C5.55029 4.17961 5.5378 4.24091 5.52759 4.47413L5.51504 4.76124L5.03352 4.75819C4.76869 4.75651 4.50687 4.74445 4.4517 4.73142Z" fill="#FDCC4E" stroke="#A9C3C7" stroke-width="0.0955637"/>
<path id="o" d="M4.8062 7.62935C4.58455 7.61874 4.37482 7.59419 4.34014 7.57479C4.30066 7.55272 4.27007 7.49723 4.25838 7.42645C4.23171 7.26507 4.23451 5.2151 4.26142 5.19911C4.27373 5.19178 4.56254 5.19291 4.90321 5.20163L5.52261 5.21747V5.48415C5.52261 5.7391 5.52645 5.75466 5.60987 5.83808L5.69713 5.92534L6.27405 5.92356C7.22748 5.92062 7.25393 5.90847 7.25393 5.47428V5.20893H10.7166V5.51757C10.7166 5.82444 10.7171 5.82645 10.7987 5.86717C10.8946 5.91499 11.735 5.94308 12.0867 5.91022C12.4075 5.88024 12.448 5.83236 12.448 5.48321V5.21747L13.0674 5.20163C13.4081 5.19291 13.6969 5.19178 13.7092 5.19911C13.7446 5.22021 13.7366 7.41245 13.7009 7.47922C13.684 7.5108 13.6269 7.56029 13.574 7.5892C13.4836 7.63859 13.2301 7.64195 9.34356 7.6452C7.06965 7.6471 5.02786 7.63998 4.80627 7.62936L4.8062 7.62935Z" fill="#FDCC4E" stroke="#A9C3C7" stroke-width="0.0955637"/>
<path id="p" d="M4.44067 12.524C4.37916 12.5121 4.30192 12.4779 4.26903 12.4482C4.21138 12.396 4.20923 12.3567 4.20923 11.3572C4.20923 10.3985 4.21333 10.3153 4.26364 10.2532C4.31396 10.191 4.35344 10.184 4.78943 10.1591C5.04871 10.1442 7.10292 10.136 9.35443 10.1408C13.4224 10.1495 13.4487 10.15 13.5525 10.2109C13.6393 10.2619 13.6604 10.2946 13.6772 10.4049C13.7032 10.576 13.7072 12.0705 13.6822 12.2786C13.6527 12.5242 13.6224 12.5355 12.9643 12.5479L12.4182 12.5582V12.3033C12.4182 12.077 12.4101 12.039 12.3462 11.9647L12.2742 11.8809L11.6372 11.8716C10.9362 11.8614 10.8305 11.8715 10.7449 11.9572C10.696 12.0061 10.6869 12.0576 10.6869 12.2839V12.5526H7.22416V12.3005C7.22416 12.0771 7.21596 12.0389 7.15217 11.9647L7.08019 11.8809L6.44322 11.8716C5.74216 11.8614 5.63651 11.8715 5.55088 11.9572C5.502 12.0061 5.49285 12.0576 5.49285 12.2839V12.5526L5.0227 12.5491C4.76411 12.5472 4.50218 12.5359 4.44067 12.524Z" fill="#FDCC4E" stroke="#A9C3C7" stroke-width="0.0955637"/>
<path id="q" d="M5.63516 15.4208L4.3597 15.4031L4.19421 15.2375V14.1213C4.19421 13.5074 4.20106 12.9983 4.20943 12.9899C4.2178 12.9815 4.50996 12.9824 4.85868 12.992L5.49272 13.0093V13.2717C5.49272 13.5059 5.50044 13.5431 5.5647 13.6178L5.63667 13.7016L6.16917 13.7114C6.85732 13.7241 7.06099 13.7032 7.15362 13.6106C7.21727 13.5469 7.22407 13.5141 7.22407 13.2701V13.0001H10.6868V13.6197L10.7838 13.6607C10.8914 13.706 12.0952 13.721 12.2459 13.6788C12.3687 13.6444 12.4181 13.5187 12.4181 13.2404V13.0001H12.7418C12.9199 13.0001 13.2096 12.9913 13.3856 12.9805L13.7056 12.9609L13.6962 14.0925C13.6892 14.9365 13.6771 15.2408 13.6489 15.2901C13.6278 15.3271 13.5619 15.369 13.4997 15.3852C13.3657 15.42 7.49526 15.4465 5.63528 15.4208L5.63516 15.4208Z" fill="#FDCC4E" stroke="#A9C3C7" stroke-width="0.0955637"/>
<path id="r" d="M4.43471 20.1946C4.20549 20.1504 4.20899 20.1687 4.20899 19.0151C4.20899 18.0713 4.21319 17.9867 4.26315 17.925C4.31275 17.8637 4.35484 17.8558 4.76315 17.8306C5.28754 17.7983 13.408 17.8166 13.531 17.8504C13.5767 17.8629 13.6297 17.9018 13.6488 17.9367C13.6916 18.0148 13.7178 19.5721 13.6815 19.8777C13.6439 20.1935 13.6236 20.203 12.9553 20.2188L12.4182 20.2315V19.9721C12.4182 19.674 12.3961 19.6162 12.2651 19.5705C12.1384 19.5264 10.9666 19.5264 10.8399 19.5705C10.7091 19.6161 10.6868 19.6741 10.6868 19.9684V20.2241H7.2241V19.9684C7.2241 19.6741 7.2018 19.6161 7.07102 19.5705C6.94436 19.5264 5.7725 19.5264 5.64582 19.5705C5.51505 19.6161 5.49274 19.6741 5.49274 19.9684V20.2241L5.02259 20.2207C4.76401 20.2188 4.49954 20.207 4.43489 20.1946L4.43471 20.1946Z" fill="#FDCC4E" stroke="#A9C3C7" stroke-width="0.0955637"/>
<path id="s" d="M4.90343 23.0612C4.35957 23.0458 4.32605 23.0415 4.26265 22.978C4.19614 22.9114 4.19568 22.9043 4.18363 21.7717L4.17151 20.6324L4.55575 20.652C4.76709 20.6628 5.06426 20.6717 5.21612 20.6718L5.49224 20.6719V20.9276C5.49224 21.2219 5.51454 21.2799 5.64532 21.3255C5.77198 21.3696 6.94384 21.3696 7.07052 21.3255C7.20129 21.2799 7.2236 21.2219 7.2236 20.9276V20.6719H10.6863V20.9276C10.6863 21.2219 10.7086 21.2799 10.8394 21.3255C10.9661 21.3696 12.1379 21.3696 12.2646 21.3255C12.3954 21.2799 12.4177 21.2219 12.4177 20.9276V20.6719H12.6966C12.85 20.6719 13.1399 20.6631 13.3409 20.6523L13.7063 20.6326L13.6963 21.7709L13.6863 22.9091L13.6184 22.9771C13.5613 23.0342 13.5063 23.0482 13.2751 23.0646C12.9504 23.0877 5.73859 23.0848 4.90366 23.0612L4.90343 23.0612Z" fill="#FDCC4E" stroke="#A9C3C7" stroke-width="0.0955637"/>
<path id="t" d="M7.37355 1.57468C7.37378 1.39818 7.38674 1.23363 7.4023 1.209C7.42663 1.17049 7.61958 1.16304 8.7824 1.15572C9.52595 1.15105 10.2283 1.15776 10.3432 1.17065L10.5521 1.19408L10.5606 1.54482L10.569 1.89557H10.3605L10.3519 1.6524C10.3438 1.425 10.3377 1.40516 10.259 1.34643C10.178 1.28603 10.137 1.28328 9.19191 1.27465C8.65135 1.26971 8.09199 1.27855 7.9488 1.29428C7.61409 1.33106 7.582 1.36436 7.582 1.67499V1.89557H7.37305L7.37355 1.57468Z" fill="#FDCC4E" stroke="#A9C3C7" stroke-width="0.0955637"/>
<path id="u" d="M7.34343 9.36551C7.34365 9.18902 7.35661 9.02446 7.37217 8.99984C7.3965 8.96132 7.58945 8.95387 8.75227 8.94656C9.49583 8.94188 10.1982 8.9486 10.3131 8.96148L10.522 8.98491L10.5304 9.33566L10.5388 9.6864H10.3355L10.3221 9.43201C10.3148 9.2921 10.294 9.16288 10.276 9.14487C10.258 9.12685 10.1851 9.10086 10.114 9.08712C9.93714 9.05294 7.92415 9.05424 7.77573 9.08863C7.5959 9.1303 7.55185 9.20452 7.55185 9.46583V9.6864H7.3429L7.34343 9.36551Z" fill="#FDCC4E" stroke="#A9C3C7" stroke-width="0.0955637"/>
<path id="v" d="M7.34338 17.0376C7.3436 16.8611 7.35657 16.6966 7.37214 16.672C7.4149 16.6043 10.465 16.6043 10.5077 16.672C10.5233 16.6966 10.5362 16.8611 10.5365 17.0376L10.5369 17.3585H10.328V17.123C10.328 16.9357 10.3163 16.8731 10.2709 16.8171L10.2139 16.7466L9.09932 16.737C7.87243 16.7265 7.70993 16.736 7.61539 16.824C7.56085 16.8749 7.55185 16.9169 7.55185 17.1209V17.3585H7.3429L7.34338 17.0376Z" fill="#FDCC4E" stroke="#A9C3C7" stroke-width="0.0955637"/>
<path id="w" d="M11.2837 5.00113V4.5224H11.8807L11.8777 4.91792C11.8734 5.48989 11.8901 5.46093 11.5585 5.47128L11.2837 5.47986V5.00113Z" fill="#FDCC4E" stroke="#A9C3C7" stroke-width="0.0955637"/>
<path id="x" d="M6.08984 5.00001V4.5224H6.68686V5.4776H6.08984V5.00001Z" fill="#FDCC4E" stroke="#A9C3C7" stroke-width="0.0955637"/>
<path id="y" d="M6.05969 12.7907V12.3131H6.65671V13.2683H6.05969V12.7907Z" fill="#FDCC4E" stroke="#A9C3C7" stroke-width="0.0955637"/>
<path id="z" d="M11.2534 12.7907V12.3131H11.8206V13.2683H11.2534V12.7907Z" fill="#FDCC4E" stroke="#A9C3C7" stroke-width="0.0955637"/>
<path id="aa" d="M11.2534 20.4481V19.9854H11.8206V20.9108H11.2534V20.4481Z" fill="#FDCC4E" stroke="#A9C3C7" stroke-width="0.0955637"/>
<path id="ab" d="M6.05969 20.4481V19.9854H6.65671V20.9108H6.05969V20.4481Z" fill="#FDCC4E" stroke="#A9C3C7" stroke-width="0.0955637"/>
</g>
</g>
</svg>
