<svg width="40" height="40" viewBox="0 0 40 40" fill="none" xmlns="http://www.w3.org/2000/svg">
<g id="group">
<mask id="mask0_5_391" style="mask-type:alpha" maskUnits="userSpaceOnUse" x="0" y="0" width="41" height="40">
<rect id="Bounding box" x="0.5" width="40" height="40" fill="#D9D9D9"/>
</mask>
<g mask="url(#mask0_5_391)">
<path id="group_2" d="M25.8111 17.7975C26.5019 17.1066 26.8519 16.243 26.8519 15.1692C26.8519 14.0953 26.5019 13.2317 25.8111 12.5409C25.1202 11.85 24.2566 11.5 23.1828 11.5C23.0191 11.5 22.8424 11.5107 22.6523 11.5328C22.9139 11.9378 23.1281 12.3677 23.2943 12.8222M25.8111 17.7975L22.8247 12.994M25.8111 17.7975C25.1202 18.4884 24.2566 18.8384 23.1828 18.8384C23.0403 18.8384 22.8719 18.8285 22.6763 18.8075M25.8111 17.7975L22.6763 18.8075M23.2943 12.8222L22.8247 12.994M23.2943 12.8222C23.2943 12.8222 23.2943 12.8222 23.2943 12.8222L22.8247 12.994M23.2943 12.8222C23.5559 13.5373 23.6828 14.3215 23.6828 15.1692C23.6828 16.0171 23.5558 16.8112 23.2963 17.5469M22.8247 12.994C23.0634 13.6465 23.1828 14.3716 23.1828 15.1692C23.1828 15.9668 23.0634 16.7039 22.8247 17.3807M23.2963 17.5469L22.8247 17.3807M23.2963 17.5469C23.1357 18.0022 22.9293 18.4229 22.6763 18.8075M23.2963 17.5469C23.2963 17.5469 23.2963 17.547 23.2963 17.547L22.8247 17.3807M22.8247 17.3807L22.6763 18.8075M22.1139 11.6277C22.2516 11.5936 22.3973 11.5661 22.5513 11.5454L22.1139 11.6277ZM22.1139 11.6277C22.012 11.4814 21.903 11.3386 21.787 11.1994L22.1139 11.6277ZM27.855 21.9009L27.9864 21.4184L27.855 21.9009C28.836 22.1681 29.6491 22.4767 30.3015 22.822C30.8629 23.1422 31.2816 23.5131 31.5753 23.9279C31.8597 24.3295 32 24.7708 32 25.2659V27.5574H28.2145V25.2659C28.2145 24.1473 27.9216 23.1601 27.3165 22.3295C27.1359 22.0815 26.9368 21.8478 26.7196 21.6283C27.1077 21.7095 27.4861 21.8004 27.855 21.9009ZM14.5726 12.5409L14.5726 12.5409C15.2635 11.85 16.127 11.5 17.2009 11.5C18.2748 11.5 19.1384 11.85 19.8292 12.5409L19.8292 12.5409C20.5201 13.2317 20.8701 14.0953 20.8701 15.1692C20.8701 16.243 20.5201 17.1066 19.8292 17.7975C19.1384 18.4884 18.2748 18.8384 17.2009 18.8384C16.127 18.8384 15.2635 18.4884 14.5726 17.7975C13.8817 17.1066 13.5317 16.243 13.5317 15.1692C13.5317 14.0953 13.8817 13.2317 14.5726 12.5409ZM9 27.5574V25.3384C9 24.8007 9.13685 24.3206 9.40875 23.8861C9.67944 23.4535 10.0467 23.1302 10.5215 22.9105C11.755 22.3472 12.8992 21.9409 13.9552 21.6871C15.0098 21.4336 16.0914 21.3067 17.2009 21.3067C18.3104 21.3067 19.3888 21.4336 20.4369 21.6869C21.487 21.9407 22.6284 22.3471 23.8622 22.9105C24.3377 23.1306 24.7091 23.4549 24.9862 23.8896C25.263 24.3238 25.4018 24.8026 25.4018 25.3384V27.5574H9Z" fill="#FDCC4E" stroke="#A9C3C7"/>
</g>
</g>
</svg>
