<?xml version="1.0" encoding="UTF-8"?>
<svg id="b" width="135.82mm" height="116.3608mm" version="1.1" viewBox="0 0 135.82 116.3608" xmlns="http://www.w3.org/2000/svg" xmlns:xlink="http://www.w3.org/1999/xlink">
 <defs id="c">
  <radialGradient id="a" cx="79.30744" cy="105.4393" r="7.254604" gradientTransform="matrix(.1395063 -1.309472 2.484952 -2.468559 -197.8073 465.1905)" gradientUnits="userSpaceOnUse">
   <stop id="d" stop-color="#e0e0e0" offset="0"/>
   <stop id="e" stop-color="#ffffc1" stop-opacity=".6666667" offset=".4955947"/>
   <stop id="f" stop-color="#ffc69f" offset="1"/>
  </radialGradient>
 </defs>
 <g id="g" transform="translate(-15.28452 5.70422)">
  <g id="h" transform="matrix(.9421733 0 0 1 2.47289 -1.828452)" stroke-width="1.35446" style="mix-blend-mode:normal">
   <ellipse id="i" cx="85.67601" cy="98.34458" rx="70.01463" ry="11.63479" fill="#d2c0ac" stroke="#786721" stroke-linecap="round" stroke-linejoin="round" stroke-width="1.35446" style="paint-order:stroke fill markers"/>
  </g>
  <g id="j" fill="#a1a1a1" stroke="#a1a1a1" stroke-linecap="round" stroke-linejoin="round" stroke-width=".79375">
   <path id="k" d="m79.22048 64.81291c-1.001909 1.176384-1.795242 2.62113-2.651409 3.965486-1.459639 1.76875-2.720091 3.827821-4.274657 5.452866-0.126277 1.34929 0.31808 2.722228 0.379297 4.09121 0.383343 3.237648 0.879704 6.447082 1.354295 9.661269 0.374316 3.134971 0.661221 6.290602 1.187892 9.390361-0.281272 1.560568 0.894309 2.121238 1.818058 2.092488 1.123047 0.451888 2.151473-0.31562 3.140894-0.886838 0.77144-0.23168 1.79772-0.92669 1.07001-2.066068-0.57877-2.06611-1.03808-4.197503-1.70834-6.212898-0.544443-2.720101-0.441945-5.568885-0.622395-8.347801 0.08679-2.093439 0.169162-4.196449 0.483383-6.252377 0.116202-1.878804-0.234622-3.740471-0.178901-5.624684-0.03909-1.742686 0.05474-3.511932 0.04752-5.236397zm-7.043525 9.27439c0.06467-0.173849-0.177345-0.02232 0 0z" style="paint-order:stroke fill markers"/>
   <path id="l" d="m112.5108 3.225772c-1.83026 3.268607-3.2795 7.282863-4.84352 11.01818-2.66644 4.914507-4.96899 10.63568-7.808845 15.1509-0.23067 3.74903 0.581065 7.563767 0.692895 11.36751 0.70027 8.995871 1.60703 17.91335 2.474 26.84403 0.68379 8.71058 1.2079 17.47856 2.17002 26.09131-0.51382 4.336071 1.6337 5.893904 3.32118 5.814014 2.05154 1.255596 3.93025-0.876946 5.7377-2.46409 1.40924-0.643728 3.28403-2.574827 1.95466-5.740612-1.05728-5.740728-1.89634-11.66285-3.12075-17.26266-0.99457-7.557857-0.80733-15.47326-1.13696-23.19453 0.15856-5.816663 0.309-11.65992 0.88301-17.37236 0.21227-5.220294-0.42859-10.39297-0.3268-15.6283-0.0714-4.842089 0.0999-9.757974 0.0867-14.54943zm-12.86692 25.76908c0.1182-0.483043-0.32398-0.06201 0 0z" style="paint-order:stroke fill markers"/>
   <path id="m" d="m94.26149 23.35823c-1.6922 2.53789-3.03212 5.654735-4.47817 8.555002-2.4653 3.81584-4.59417 8.258008-7.21981 11.76382-0.21327 2.910912 0.53723 5.872841 0.64063 8.826235 0.64745 6.98479 1.48581 13.90871 2.28738 20.84289 0.63221 6.763278 1.11679 13.57113 2.00633 20.25844-0.47506 3.366716 1.51047 4.576286 3.07066 4.514261 1.89679 0.974892 3.63379-0.680907 5.3049-1.913233 1.302942-0.499819 3.036302-1.999209 1.807212-4.457264-0.977522-4.457354-1.753292-9.055548-2.885342-13.40349-0.91955-5.868252-0.74643-12.01412-1.0512-18.00926 0.1466-4.516313 0.2857-9.053274 0.81641-13.48866 0.19626-4.053266-0.39626-8.069562-0.30215-12.1345-0.066-3.759611 0.0924-7.576521 0.0802-11.29682zm-11.89635 20.00825c0.10928-0.375056-0.29954-0.04815 0 0z" style="paint-order:stroke fill markers"/>
  </g>
  <g id="n" stroke-linecap="round" stroke-linejoin="round">
   <path id="o" d="m37.93454-2.66679s30.32211 52.41282 60.4624 53.0214c30.14034 0.608582 37.69716 14.53717 37.69716 14.53717l1.85432 20.35001-69.3722-10.85417s-18.04198-4.071865-26.34471-27.78523c-8.302723-23.71336-9.216562-38.82567-7.534504-46.01356 1.682062-7.187895 3.237528-3.255631 3.237528-3.255631z" fill="#657980" stroke="#657980" stroke-width="1.31864"/>
   <path id="p" d="m53.35093 61.2844s-5.610864-2.584593-0.508901-11.81656c5.101971-9.231967 43.10828 2.036854 43.10828 2.036854s19.36119 3.28464-0.111722-11.39181c-19.47294-14.67645 34.64489-36.39052 34.64489-36.39052l-5.39938 74.83993z" fill="#c5c5c5" stroke="#c5c5c5" stroke-width="1.49238"/>
  </g>
  <g id="q" transform="translate(7.073414 -31.76454)" stroke-linecap="round" stroke-linejoin="round">
   <ellipse id="r" cx="68.89365" cy="62.4291" rx="8.496268" ry="7.572761" fill="#f6e7cb" stroke="#957e55" stroke-width="1.058333"/>
   <path id="s" d="m38.78731 87.1791s1.10821 12.1903 8.311568 22.90299c7.203358 10.71269 12.1903 10.71269 12.1903 10.71269l-17.73134 5.17164-7.38806-24.1959z" fill="#de930c" stroke="#de930c" stroke-width="1.9177"/>
   <path id="t" transform="translate(-7.073414 31.76454)" d="m48.79218 94.37302c26.83162-8.624692 22.37556-8.484021 22.37556-8.484021s1.08067 2.688049-0.317798 3.218299c-1.398482 0.530237-19.60769 6.549444-22.05776 5.265722z" fill="#483e37" stroke="#de930c" stroke-width=".79375" style="paint-order:stroke fill markers"/>
   <path id="u" d="m63.61814 86.13053s-4.498039-7.229557 1.157344-2.837166c5.655383 4.392392 8.392941 7.581919 10.98891 12.03136 2.595965 4.44943 3.263661 9.412952 3.263661 9.412952l-2.422732-2.45167s0.726498-1.39476-0.391537-3.498883c-1.11804-2.104119-4.967877-2.953148-5.45626-3.581531-0.488379-0.628382-7.139384-9.075067-7.139384-9.075067z" fill="#404040" stroke="#404040" stroke-width=".264583"/>
   <path id="v" d="m64.27612 93.82836s-17.73134 2.770521-6.279848-4.248134c11.45149-7.018657-12.1903-15.51493-12.1903-15.51493l8.126865-3.69403 13.29851 17.91604z" fill="#de930c" stroke="#de930c" stroke-width="1.9177"/>
   <path id="w" d="m31.59797 130.4149s-6.919403-31.94995 2.533865-51.42629c9.453268-19.47634 26.70305-21.00818 26.70305-21.00818s3.703343-0.656505 7.69905 26.47907c3.995716 27.13557 5.872464 4.371018 5.872464 4.371018l2.851315-1.407458-4.284326 12.38145s-14.30515 8.587333-9.214814-6.591599c1.218954-3.634793 0.694883-8.281503 0.357906-9.374642-0.814062-2.640725-3.731622-7.612703-6.315488-8.002519-6.394229-0.964666-12.48412 1.44397-14.21589 2.715201-5.577196 4.09402-5.555014 15.75614-3.995712 23.63421 1.559302 7.87805 9.1609 27.35439 9.1609 27.35439z" fill="#f4b544" stroke="#f4b544" stroke-width="1.51626"/>
   <path id="x" transform="translate(-7.073414 31.76454)" d="m37.98336 99.02226c31.56706-0.157918 26.7843-1.544311 26.7843-1.544311s0.191035 3.313276-1.48298 3.409796c-1.674021 0.0965-23.15604 0.38531-25.30132-1.865485z" fill="#483e37" stroke="#f4b544" stroke-width=".79375" style="paint-order:stroke fill markers"/>
   <path id="y" d="m64.03794 57.1779s2.208353-2.318717 5.152823-1.594118c2.944461 0.724599 16.6853 5.072192 12.51398 8.115509-4.171324 3.043315-13.00473 9.70963-13.00473 9.70963l-3.680584-2.31872s11.04175-6.956151 2.699093-9.129948c-8.342652-2.173797-3.680581-4.782353-3.680581-4.782353z" fill="#6e6e6e" stroke="#6e6e6e" stroke-width=".949118" style="paint-order:stroke fill markers"/>
   <path id="z" d="m80.05862 100.5616c-2.393825 3.32501-4.63498 6.56207-6.3771 9.41502 2.073165-2.87677 3.593653-5.35927 5.12606-7.83527-2.014195 1.71861-4.093102 5.43291-5.020117 5.88797 0.594443-1.33468 3.886501-5.61725 2.879772-5.15979-2.079863 2.08654-4.984145 6.45366-6.382948 7.02122-0.380963-0.65659 1.96912-3.79963 3.111179-5.81787 0.713198-1.19302 2.272598-3.65225 2.657753-4.210426-1.949824 2.788626-4.469162 5.930356-6.714846 8.894096-1.772869 2.18631-1.833915 1.60116-0.902085 0.28972 0.558517-1.04719 3.600615-5.47351 0.538956-2.28455-1.615583 1.69301-4.452182 5.40297-5.353291 5.66393 0.291489-1.05728 2.690798-4.09006 2.800724-4.84084-2.10595 2.25762-3.389862 4.39783-5.576061 6.62031 0.414857-1.01564 2.232173-3.35692 3.399551-5.0253 1.053668-1.48606 3.685102-4.81959 4.062388-5.31579-0.549214 0.64312-1.239381 1.69757-0.187364 0.31294-3.130947 4.10787-6.613746 8.40935-10.28643 12.74695 1.537016-2.41562 3.911512-5.41 5.904894-8.13115 2.591886-3.32996 5.068817-6.60573 7.14349-9.620736 1.930664-2.724254 4.162896-5.678512 6.690466-8.72916 2.61993-2.775865 2.605296-1.549297 2.068737-0.370929-0.407228 0.789454-1.010638 2.184834 0.588573-0.02343 0.640735-0.969293 3.020443-3.814346 1.108351-1.287131-2.668062 3.580332-5.343227 7.166422-7.984704 10.73129 2.689574-3.243066 4.829517-6.282635 7.785915-9.613952 1.635531-0.963754-2.149402 3.516728-2.695889 4.748747-1.246063 1.866526-2.549232 3.774805-3.770891 5.623441 2.211309-2.74528 4.540761-6.176013 7.378974-8.752616 1.149278-0.469272-1.343972 2.726064-2.353738 4.278001-0.824104 1.171891-3.113197 4.523145-0.873401 1.532591 2.085399-2.736918 4.074392-5.46386 6.627036-8.41436 1.588159-0.796028-1.56507 3.173227-2.633548 4.90917-0.820235 1.130719-2.577555 3.623787-2.380679 3.586441 2.026475-2.792634 4.47496-5.961518 7.328025-9.058179 3.353004-3.184532 0.288962 1.345326-0.532286 2.802005-0.345557 0.550747-2.118136 3.343469-0.449025 1.050698 1.527276-2.019589 3.880617-5.411679 5.808143-6.957591 0.580945 0.45699-2.162486 3.995582-3.030647 5.793518-1.319604 2.226221-3.992482 5.328583-5.462559 7.651176-2.34422 3.225776-5.443992 6.899416-8.537834 10.41854-1.607122 1.72137 0.821732-1.57371 0.658345-1.79092 0.317028-0.7244 0.488378-1.3152 0.56395-1.81127" fill="url(#a)" stroke="#f3cc00" stroke-dasharray="0.408539, 0.204268, 0.102134, 0.204268" stroke-width=".204268"/>
   <path id="aa" d="m76.70366 62.27302 3.694031 2.770524" fill="#6e6e6e" stroke="#dcda00" stroke-width="1.31471" style="paint-order:stroke fill markers"/>
  </g>
 </g>
</svg>
